<svg width="205" height="238" viewBox="0 0 205 238" xmlns="http://www.w3.org/2000/svg"><title>Page 1</title><g fill="#063566" fill-rule="evenodd"><path d="M87.652 111.989c-6.468 0-11.726 5.257-11.726 11.726 0 4.391-3.563 7.949-7.953 7.949a7.951 7.951 0 0 1-7.95-7.949c0-6.469-5.257-11.726-11.726-11.726-6.465 0-11.727 5.257-11.727 11.726 0 15.566 20.18 30.41 31.403 36.871 11.226-6.461 31.406-21.305 31.406-36.871-.004-6.469-5.262-11.726-11.727-11.726"/><path d="M106.266 219.176s-10.09-3.363-10.09-11.773a5.047 5.047 0 1 1 10.094 0 5.045 5.045 0 1 1 10.089 0c0 8.41-10.093 11.773-10.093 11.773m-38.293-41.602a7.977 7.977 0 0 1-3.555-.835c-1.785-.895-43.746-22.231-43.746-53.024 0-15.234 12.39-27.629 27.625-27.629 7.695 0 14.664 3.16 19.676 8.254 5.015-5.094 11.984-8.254 19.679-8.254 15.231 0 27.625 12.395 27.625 27.629 0 30.793-41.961 52.129-43.75 53.024a7.95 7.95 0 0 1-3.554.835M24.898 56.871a5.044 5.044 0 0 1 5.047 5.047 5.047 5.047 0 0 1 10.094 0c0 8.41-10.094 11.774-10.094 11.774s-10.09-3.364-10.09-11.774a5.044 5.044 0 0 1 5.043-5.047m100.715-20.808H10.336C4.637 36.063 0 40.699 0 46.399v180.867c0 5.699 4.637 10.336 10.336 10.336h115.277c5.699 0 10.336-4.637 10.336-10.336V46.399c0-5.7-4.637-10.336-10.336-10.336"/><path d="M203.387 50.098a15.786 15.786 0 0 0-8.864-8.332L86.688 1.028c-8.2-3.098-17.395 1.05-20.497 9.253l-5.535 14.653h64.957c11.836 0 21.465 9.629 21.465 21.465v165.949l56.699-150.086c1.5-3.965 1.36-8.285-.39-12.164"/></g></svg>