<svg id="Logo" xmlns="http://www.w3.org/2000/svg" width="409.625" height="96" viewBox="0 0 409.625 96"><defs><style>.cls-1{fill:#999}.cls-1,.cls-2,.cls-4{fill-rule:evenodd}.cls-2,.cls-3{fill:#fff}</style></defs><path id="Trusted_Since_2003" data-name="Trusted Since 2003" class="cls-1" d="M279.506 121.842h-9.061a.723.723 0 0 0-.546.229.774.774 0 0 0-.218.558.747.747 0 0 0 .764.768h3.712v10.486a.809.809 0 0 0 .818.824.823.823 0 0 0 .592-.238.785.785 0 0 0 .245-.586V123.4h3.694a.771.771 0 0 0 .555-.219.735.735 0 0 0 .227-.549.762.762 0 0 0-.227-.558.752.752 0 0 0-.555-.229zm7.35 3.257h-.091a3.582 3.582 0 0 0-2.856 1.721v-.787a.813.813 0 0 0-.246-.595.8.8 0 0 0-.591-.247.771.771 0 0 0-.582.247.829.829 0 0 0-.237.595v7.85a.8.8 0 0 0 .237.586.789.789 0 0 0 .582.238.821.821 0 0 0 .591-.238.782.782 0 0 0 .246-.586v-5.563a3.7 3.7 0 0 1 1.219-1.18 3.086 3.086 0 0 1 1.6-.43h.091a.843.843 0 0 0 .6-.22.737.737 0 0 0 .237-.567.819.819 0 0 0-.227-.586.763.763 0 0 0-.574-.238zm7.114 9.7a3.753 3.753 0 0 0 1.893-.457 6.1 6.1 0 0 0 1.492-1.226v.75a.812.812 0 0 0 .245.595.8.8 0 0 0 .591.247.775.775 0 0 0 .583-.247.832.832 0 0 0 .236-.595v-7.851a.8.8 0 0 0-.236-.585.789.789 0 0 0-.583-.238.818.818 0 0 0-.591.238.781.781 0 0 0-.245.585v5.49a5.913 5.913 0 0 1-1.355 1.28 2.877 2.877 0 0 1-1.628.476q-2 0-2-2.232v-5.015a.8.8 0 0 0-.236-.585.789.789 0 0 0-.583-.238.818.818 0 0 0-.591.238.781.781 0 0 0-.245.585v5.2a4.164 4.164 0 0 0 .391 1.811 3.084 3.084 0 0 0 1.128 1.3 3.131 3.131 0 0 0 1.737.475zm10.5-6.9a1.066 1.066 0 0 1 .555-.924 2.83 2.83 0 0 1 1.538-.357 6.928 6.928 0 0 1 2.074.33 1.034 1.034 0 0 0 .236.036.69.69 0 0 0 .519-.219.722.722 0 0 0 .209-.513.741.741 0 0 0-.136-.421.685.685 0 0 0-.391-.274 7.551 7.551 0 0 0-2.639-.458 3.867 3.867 0 0 0-2.629.806 2.646 2.646 0 0 0-.919 2.086 2.121 2.121 0 0 0 .5 1.473 3.11 3.11 0 0 0 1.2.833 13.492 13.492 0 0 0 1.774.53 9.543 9.543 0 0 1 1.519.494.694.694 0 0 1 .464.641q0 1.3-2.02 1.3a5.363 5.363 0 0 1-1.31-.146 7.343 7.343 0 0 1-1.164-.4.812.812 0 0 0-.328-.073.656.656 0 0 0-.509.22.733.733 0 0 0-.2.512.7.7 0 0 0 .309.6 6.733 6.733 0 0 0 3.311.823 3.934 3.934 0 0 0 2.593-.768 2.425 2.425 0 0 0 .919-1.94 2.27 2.27 0 0 0-.482-1.519 2.9 2.9 0 0 0-1.156-.833 15.35 15.35 0 0 0-1.746-.539 7.229 7.229 0 0 1-1.583-.5.845.845 0 0 1-.51-.805zm13.592 5.271a1.012 1.012 0 0 0-.21.018l-.154.037a2.52 2.52 0 0 1-.728.109 1.686 1.686 0 0 1-.846-.192.97.97 0 0 1-.337-.906v-5.526h2.056a.673.673 0 0 0 .51-.211.706.706 0 0 0 .2-.5.688.688 0 0 0-.71-.714h-2.056v-1.464a.367.367 0 0 0-.1-.256.321.321 0 0 0-.245-.11.457.457 0 0 0-.31.165l-2.474 2.434a.383.383 0 0 0-.164.311.343.343 0 0 0 .346.348h1.292v5.673q0 2.415 2.656 2.415a3.535 3.535 0 0 0 1.51-.329.693.693 0 0 0 .419-.641.62.62 0 0 0-.2-.466.638.638 0 0 0-.454-.192zm11.038-.57a.715.715 0 0 0-.327.074 5.5 5.5 0 0 1-1.119.42 5.417 5.417 0 0 1-1.337.147 3.244 3.244 0 0 1-2.238-.714 3.013 3.013 0 0 1-.946-2h6.167a.806.806 0 0 0 .609-.237.814.814 0 0 0 .227-.586 5.21 5.21 0 0 0-.509-2.3 4.08 4.08 0 0 0-1.492-1.683 4.213 4.213 0 0 0-2.329-.632 4.166 4.166 0 0 0-2.42.677 4.072 4.072 0 0 0-1.455 1.776 5.983 5.983 0 0 0-.473 2.4 4.9 4.9 0 0 0 1.246 3.578 4.63 4.63 0 0 0 3.466 1.271 5.652 5.652 0 0 0 3.184-.805.791.791 0 0 0 .473-.677.667.667 0 0 0-.218-.512.732.732 0 0 0-.51-.2zm-3.293-6.094a2.83 2.83 0 0 1 1.219.284 2.509 2.509 0 0 1 1.01.888 2.938 2.938 0 0 1 .464 1.5h-5.367a3 3 0 0 1 .454-1.5 2.449 2.449 0 0 1 1-.888 2.83 2.83 0 0 1 1.219-.284zm11.9-1.409a4.253 4.253 0 0 0-2.138.577 4.355 4.355 0 0 0-1.637 1.683 5.653 5.653 0 0 0 0 5.179 4.351 4.351 0 0 0 1.637 1.684 4.252 4.252 0 0 0 2.138.576 4.172 4.172 0 0 0 3.112-1.39v.475a.781.781 0 0 0 .245.586.822.822 0 0 0 .591.238.809.809 0 0 0 .819-.824v-11.874a.832.832 0 0 0-.236-.595.775.775 0 0 0-.583-.247.818.818 0 0 0-.591.238.8.8 0 0 0-.245.6v4.483a4.173 4.173 0 0 0-3.112-1.391zm.237 8.144a2.85 2.85 0 0 1-2.165-.86 4.026 4.026 0 0 1 0-4.868 2.85 2.85 0 0 1 2.165-.86 3.425 3.425 0 0 1 1.574.375 4.526 4.526 0 0 1 1.3 1v3.843a4.512 4.512 0 0 1-1.3 1 3.425 3.425 0 0 1-1.574.375zm16.393-7.961a1.714 1.714 0 0 1 .9-1.537 4.444 4.444 0 0 1 2.338-.549 8.859 8.859 0 0 1 2.93.494.826.826 0 0 0 .291.073.659.659 0 0 0 .528-.237.808.808 0 0 0 .2-.531.712.712 0 0 0-.51-.732 10.284 10.284 0 0 0-3.62-.6 5.95 5.95 0 0 0-2.557.5 3.767 3.767 0 0 0-1.61 1.354 3.436 3.436 0 0 0-.546 1.894 2.7 2.7 0 0 0 .655 1.9 4.163 4.163 0 0 0 1.565 1.07 21.732 21.732 0 0 0 2.383.741q1.11.294 1.711.5a2.951 2.951 0 0 1 1.009.576 1.177 1.177 0 0 1 .41.915q0 2.1-3.184 2.1a8.652 8.652 0 0 1-3.585-.751.848.848 0 0 0-.345-.073.692.692 0 0 0-.537.229.785.785 0 0 0-.064.988.832.832 0 0 0 .364.3 10.735 10.735 0 0 0 4.331.878 6.087 6.087 0 0 0 2.438-.457 3.824 3.824 0 0 0 1.637-1.272 3.086 3.086 0 0 0 .582-1.839 2.939 2.939 0 0 0-.627-1.977 3.809 3.809 0 0 0-1.511-1.079 18.171 18.171 0 0 0-2.319-.7 16.477 16.477 0 0 1-1.756-.485 2.932 2.932 0 0 1-1.074-.64 1.42 1.42 0 0 1-.427-1.071zm13.155-2.909a.936.936 0 0 0-.928-.934h-.109a.891.891 0 0 0-.655.275.9.9 0 0 0-.273.659v.073a.9.9 0 0 0 .273.659.89.89 0 0 0 .655.274h.109a.892.892 0 0 0 .655-.274.9.9 0 0 0 .273-.659v-.073zm-1 2.818a.771.771 0 0 0-.582.247.829.829 0 0 0-.237.595v7.85a.8.8 0 0 0 .237.586.789.789 0 0 0 .582.238.821.821 0 0 0 .591-.238.782.782 0 0 0 .246-.586v-7.85a.819.819 0 0 0-.237-.6.808.808 0 0 0-.6-.238zm10.316-.092a3.747 3.747 0 0 0-1.892.458 6.06 6.06 0 0 0-1.492 1.226v-.75a.813.813 0 0 0-.246-.595.8.8 0 0 0-.591-.247.771.771 0 0 0-.582.247.829.829 0 0 0-.237.595v7.85a.8.8 0 0 0 .237.586.789.789 0 0 0 .582.238.822.822 0 0 0 .591-.238.782.782 0 0 0 .246-.586v-5.49a5.933 5.933 0 0 1 1.355-1.281 2.885 2.885 0 0 1 1.629-.475q2 0 2 2.232v5.014a.8.8 0 0 0 .237.586.789.789 0 0 0 .582.238.822.822 0 0 0 .591-.238.782.782 0 0 0 .246-.586v-5.2a4.18 4.18 0 0 0-.391-1.812 3.1 3.1 0 0 0-1.128-1.3 3.138 3.138 0 0 0-1.738-.476zm14.428 7.448a.827.827 0 0 0-.4.11 6.9 6.9 0 0 1-1.028.449 3.545 3.545 0 0 1-1.064.137 3.3 3.3 0 1 1 0-6.588 3.545 3.545 0 0 1 1.064.137 6.986 6.986 0 0 1 1.028.448.816.816 0 0 0 .4.11.637.637 0 0 0 .482-.228.73.73 0 0 0-.154-1.144 6.32 6.32 0 0 0-1.3-.632 5.035 5.035 0 0 0-1.665-.247 5.113 5.113 0 0 0-2.42.586 4.5 4.5 0 0 0-1.774 1.684 5.344 5.344 0 0 0 0 5.16 4.5 4.5 0 0 0 1.774 1.684 5.112 5.112 0 0 0 2.42.585 5.009 5.009 0 0 0 1.665-.247 6.266 6.266 0 0 0 1.3-.631.73.73 0 0 0 .154-1.144.638.638 0 0 0-.482-.229zm11.372.055a.716.716 0 0 0-.328.074 5.5 5.5 0 0 1-1.119.42 5.417 5.417 0 0 1-1.337.147 3.248 3.248 0 0 1-2.238-.714 3.013 3.013 0 0 1-.946-2h6.168a.8.8 0 0 0 .609-.237.815.815 0 0 0 .228-.586 5.2 5.2 0 0 0-.51-2.3 4.073 4.073 0 0 0-1.492-1.683 4.213 4.213 0 0 0-2.329-.632 4.163 4.163 0 0 0-2.419.677 4.074 4.074 0 0 0-1.456 1.776 5.983 5.983 0 0 0-.473 2.4 4.9 4.9 0 0 0 1.246 3.578 4.63 4.63 0 0 0 3.466 1.271 5.652 5.652 0 0 0 3.184-.805.789.789 0 0 0 .473-.677.664.664 0 0 0-.218-.512.728.728 0 0 0-.509-.2zm-3.294-6.094a2.834 2.834 0 0 1 1.22.284 2.507 2.507 0 0 1 1.009.888 2.938 2.938 0 0 1 .464 1.5h-5.367a2.992 2.992 0 0 1 .455-1.5 2.44 2.44 0 0 1 1-.888 2.833 2.833 0 0 1 1.219-.284zm22.016 6.552H415a3.109 3.109 0 0 1 .9-1.071q.645-.52 1.919-1.381 1.4-.915 2.274-1.611a7.263 7.263 0 0 0 1.5-1.619 3.492 3.492 0 0 0 .628-2 3.444 3.444 0 0 0-.555-1.94 3.724 3.724 0 0 0-1.51-1.308 4.768 4.768 0 0 0-2.12-.467 8.865 8.865 0 0 0-4.039.933.724.724 0 0 0-.4.677.694.694 0 0 0 .2.513.665.665 0 0 0 .491.2.771.771 0 0 0 .346-.091 7.529 7.529 0 0 1 3.111-.659 3.23 3.23 0 0 1 2.193.613 2.115 2.115 0 0 1 .682 1.656 2.046 2.046 0 0 1-.437 1.244 5.4 5.4 0 0 1-1.091 1.08q-.656.494-1.765 1.208-1.293.841-2.083 1.455a6.328 6.328 0 0 0-1.347 1.418 3.034 3.034 0 0 0-.555 1.757.914.914 0 0 0 .273.686.95.95 0 0 0 .692.265h7.023a.771.771 0 0 0 .555-.219.735.735 0 0 0 .227-.549.762.762 0 0 0-.227-.558.752.752 0 0 0-.555-.229zm9.461-11.4a4.223 4.223 0 0 0-3.667 1.775 9.725 9.725 0 0 0 0 9.589 4.665 4.665 0 0 0 7.324 0 9.665 9.665 0 0 0 0-9.589 4.23 4.23 0 0 0-3.657-1.775zm0 11.6a2.708 2.708 0 0 1-2.429-1.336 8.459 8.459 0 0 1 0-7.375 2.876 2.876 0 0 1 4.858 0 8.459 8.459 0 0 1 0 7.375 2.71 2.71 0 0 1-2.429 1.336zm12.917-11.6a4.222 4.222 0 0 0-3.666 1.775 9.725 9.725 0 0 0 0 9.589 4.665 4.665 0 0 0 7.324 0 9.665 9.665 0 0 0 0-9.589 4.231 4.231 0 0 0-3.658-1.775zm0 11.6a2.707 2.707 0 0 1-2.428-1.336 8.45 8.45 0 0 1 0-7.375 2.875 2.875 0 0 1 4.857 0 8.45 8.45 0 0 1 0 7.375 2.708 2.708 0 0 1-2.429 1.336zm14.611-5.252a3.762 3.762 0 0 0 1.573-1.07 2.926 2.926 0 0 0 .628-1.986 2.865 2.865 0 0 0-1.146-2.434 5.311 5.311 0 0 0-3.239-.86 7.552 7.552 0 0 0-3.6.933.665.665 0 0 0-.364.622.64.64 0 0 0 .2.485.656.656 0 0 0 .473.193.885.885 0 0 0 .327-.074 6.591 6.591 0 0 1 2.821-.6 3.723 3.723 0 0 1 2.147.513 1.614 1.614 0 0 1 .727 1.391 1.8 1.8 0 0 1-.964 1.656 5.636 5.636 0 0 1-2.784.558h-.109a.732.732 0 0 0-.537.229.755.755 0 0 0 0 1.079.732.732 0 0 0 .537.229h.291q4.022 0 4.021 2.306a1.609 1.609 0 0 1-.973 1.565 5.513 5.513 0 0 1-2.393.466 7.637 7.637 0 0 1-2.893-.53.921.921 0 0 0-.345-.074.675.675 0 0 0-.519.229.773.773 0 0 0-.209.54.707.707 0 0 0 .127.43.8.8 0 0 0 .346.265 9.911 9.911 0 0 0 3.8.732 5.786 5.786 0 0 0 3.393-.924 3 3 0 0 0 1.319-2.608 2.954 2.954 0 0 0-.81-2.26 3.961 3.961 0 0 0-1.846-1z" transform="translate(-52.25 -46)"/><path id="Casinos" class="cls-2" d="M298.867 104.231a2.123 2.123 0 0 0-.968.216 24.594 24.594 0 0 1-4.626 1.89 18.982 18.982 0 0 1-5.217.648 15.266 15.266 0 0 1-7.88-1.917 12.279 12.279 0 0 1-4.894-5.238 18.111 18.111 0 0 1 0-15.066 12.281 12.281 0 0 1 4.894-5.238 15.271 15.271 0 0 1 7.88-1.917 18.982 18.982 0 0 1 5.217.648 24.607 24.607 0 0 1 4.626 1.89 2.121 2.121 0 0 0 .968.216 2.056 2.056 0 0 0 1.56-.621 2.014 2.014 0 0 0 .591-1.431 2.176 2.176 0 0 0-1.183-2.052 27.78 27.78 0 0 0-5.728-2.484 22.746 22.746 0 0 0-6.535-.864 19.718 19.718 0 0 0-9.655 2.349 16.884 16.884 0 0 0-6.723 6.75 20.823 20.823 0 0 0-2.447 10.29 20.82 20.82 0 0 0 2.447 10.287 16.882 16.882 0 0 0 6.723 6.75 19.718 19.718 0 0 0 9.655 2.349 22.764 22.764 0 0 0 6.535-.864 27.77 27.77 0 0 0 5.728-2.484 2.176 2.176 0 0 0 1.183-2.052 1.987 1.987 0 0 0-.591-1.458 2.106 2.106 0 0 0-1.56-.594zm18.986-21.168a23.575 23.575 0 0 0-9.305 1.944 2.082 2.082 0 0 0-1.4 2.052 1.983 1.983 0 0 0 .591 1.458 1.908 1.908 0 0 0 1.4.594 2.987 2.987 0 0 0 .7-.108 30.367 30.367 0 0 1 3.523-.972 18.254 18.254 0 0 1 3.631-.324q3.711 0 5.459 1.566T324.2 94.4v.432h-6.508q-6.079 0-9.224 2.376a7.579 7.579 0 0 0-3.147 6.372 7.833 7.833 0 0 0 1.183 4.293 7.646 7.646 0 0 0 3.2 2.835 9.959 9.959 0 0 0 4.383.972 13.484 13.484 0 0 0 10.112-4.1v1.4a2.392 2.392 0 0 0 2.42 2.43 2.429 2.429 0 0 0 1.748-.7 2.309 2.309 0 0 0 .726-1.728V93.7a11.42 11.42 0 0 0-1.21-5.211 9.5 9.5 0 0 0-3.765-3.915 12.113 12.113 0 0 0-6.266-1.512zm-1.936 24.3q-3.066 0-4.384-1.188a4.012 4.012 0 0 1-1.317-3.132q0-4.266 8.121-4.266h5.863v4.536a12.717 12.717 0 0 1-3.711 2.889 9.7 9.7 0 0 1-4.572 1.161zM340.6 91.325a3.144 3.144 0 0 1 1.641-2.727 8.371 8.371 0 0 1 4.545-1.053 20.543 20.543 0 0 1 6.131.972 2.987 2.987 0 0 0 .7.108 2.033 2.033 0 0 0 1.533-.648 2.123 2.123 0 0 0 .619-1.512 2.18 2.18 0 0 0-.4-1.242 2.014 2.014 0 0 0-1.156-.81 22.357 22.357 0 0 0-7.8-1.35q-5.057 0-7.772 2.376a7.8 7.8 0 0 0-2.716 6.156 6.254 6.254 0 0 0 1.479 4.347 9.211 9.211 0 0 0 3.55 2.457 40.381 40.381 0 0 0 5.244 1.566 28.025 28.025 0 0 1 4.491 1.458 2.045 2.045 0 0 1 1.372 1.89q0 3.834-5.971 3.834a15.931 15.931 0 0 1-3.872-.432 21.645 21.645 0 0 1-3.442-1.188 2.363 2.363 0 0 0-.969-.216 1.95 1.95 0 0 0-1.506.648 2.169 2.169 0 0 0-.591 1.512 2.065 2.065 0 0 0 .914 1.782 19.943 19.943 0 0 0 9.789 2.43q4.948 0 7.665-2.268a7.146 7.146 0 0 0 2.716-5.724 6.684 6.684 0 0 0-1.426-4.482 8.545 8.545 0 0 0-3.415-2.457 44.876 44.876 0 0 0-5.163-1.593 21.368 21.368 0 0 1-4.68-1.458 2.5 2.5 0 0 1-1.506-2.376zm28.184-16.308a2.76 2.76 0 0 0-2.743-2.754h-.323a2.76 2.76 0 0 0-2.743 2.754v.216a2.76 2.76 0 0 0 2.743 2.754h.323a2.76 2.76 0 0 0 2.743-2.754v-.216zm-2.958 8.316a2.292 2.292 0 0 0-1.722.729 2.446 2.446 0 0 0-.7 1.755v23.166a2.392 2.392 0 0 0 2.421 2.43 2.431 2.431 0 0 0 1.748-.7 2.309 2.309 0 0 0 .726-1.728V85.817a2.4 2.4 0 0 0-2.474-2.484zm26.085-.27a11.11 11.11 0 0 0-5.594 1.35 17.88 17.88 0 0 0-4.41 3.618v-2.214a2.484 2.484 0 0 0-2.474-2.484 2.288 2.288 0 0 0-1.721.729 2.442 2.442 0 0 0-.7 1.755v23.166a2.394 2.394 0 0 0 2.421 2.43 2.429 2.429 0 0 0 1.748-.7 2.309 2.309 0 0 0 .726-1.728v-16.2A17.454 17.454 0 0 1 385.918 89a8.533 8.533 0 0 1 4.814-1.4q5.916 0 5.916 6.588v14.8a2.394 2.394 0 0 0 2.421 2.43 2.431 2.431 0 0 0 1.748-.7 2.309 2.309 0 0 0 .726-1.728V93.647a12.28 12.28 0 0 0-1.157-5.346 9.121 9.121 0 0 0-3.334-3.834 9.275 9.275 0 0 0-5.137-1.4zm29.959 0a14.386 14.386 0 0 0-7.262 1.782 12.084 12.084 0 0 0-4.813 5.049 17.348 17.348 0 0 0 0 14.958 12.083 12.083 0 0 0 4.813 5.049 15.576 15.576 0 0 0 14.469 0 12.271 12.271 0 0 0 4.841-5.049 17.112 17.112 0 0 0 0-14.958 12.272 12.272 0 0 0-4.841-5.049 14.277 14.277 0 0 0-7.207-1.782zm0 24.138a9.3 9.3 0 0 1-4.276-1.026 8.057 8.057 0 0 1-3.308-3.24A11.02 11.02 0 0 1 413 97.319a10.9 10.9 0 0 1 1.291-5.562 7.881 7.881 0 0 1 3.308-3.213 9.509 9.509 0 0 1 4.276-1 9.4 9.4 0 0 1 4.222 1 8.06 8.06 0 0 1 3.335 3.213 10.732 10.732 0 0 1 1.317 5.562 10.847 10.847 0 0 1-1.317 5.616 8.242 8.242 0 0 1-3.335 3.24 9.2 9.2 0 0 1-4.222 1.026zm23.83-15.876a3.142 3.142 0 0 1 1.641-2.727 8.369 8.369 0 0 1 4.544-1.053 20.545 20.545 0 0 1 6.132.972 2.979 2.979 0 0 0 .7.108 2.034 2.034 0 0 0 1.533-.648 2.123 2.123 0 0 0 .619-1.512 2.18 2.18 0 0 0-.4-1.242 2.017 2.017 0 0 0-1.156-.81 22.357 22.357 0 0 0-7.8-1.35q-5.057 0-7.772 2.376a7.8 7.8 0 0 0-2.716 6.156 6.254 6.254 0 0 0 1.479 4.347 9.211 9.211 0 0 0 3.55 2.457 40.381 40.381 0 0 0 5.244 1.566 28.025 28.025 0 0 1 4.491 1.458 2.044 2.044 0 0 1 1.371 1.89q0 3.834-5.97 3.834a15.931 15.931 0 0 1-3.872-.432 21.655 21.655 0 0 1-3.443-1.188 2.355 2.355 0 0 0-.968-.216 1.948 1.948 0 0 0-1.506.648 2.169 2.169 0 0 0-.591 1.512 2.065 2.065 0 0 0 .914 1.782 19.943 19.943 0 0 0 9.789 2.43q4.948 0 7.664-2.268a7.144 7.144 0 0 0 2.717-5.724 6.684 6.684 0 0 0-1.426-4.482 8.545 8.545 0 0 0-3.415-2.457 44.838 44.838 0 0 0-5.164-1.593 21.355 21.355 0 0 1-4.679-1.458 2.5 2.5 0 0 1-1.506-2.376z" transform="translate(-52.25 -46)"/><g id="UK"><circle id="Circle" class="cls-3" cx="162.141" cy="48" r="47.734"/><path id="UK-2" data-name="UK" class="cls-4" d="M207.2 76.324a2.292 2.292 0 0 0-1.722.729 2.446 2.446 0 0 0-.7 1.755V100.3a9.866 9.866 0 0 1-1.479 5.508 9.28 9.28 0 0 1-3.9 3.4 12.323 12.323 0 0 1-10.327 0 9.271 9.271 0 0 1-3.9-3.4 9.866 9.866 0 0 1-1.472-5.508V78.808a2.484 2.484 0 0 0-2.474-2.484 2.288 2.288 0 0 0-1.721.729 2.442 2.442 0 0 0-.7 1.755v21.33a14.11 14.11 0 0 0 2.259 8.127 13.906 13.906 0 0 0 5.808 4.941 17.57 17.57 0 0 0 14.738 0 13.908 13.908 0 0 0 5.809-4.941 14.11 14.11 0 0 0 2.259-8.127v-21.33a2.484 2.484 0 0 0-2.474-2.484zm41.253 34.29L234.2 92.578l12.424-12.42a2.265 2.265 0 0 0 .592-1.674 2.012 2.012 0 0 0-.672-1.539 2.267 2.267 0 0 0-1.587-.621 2.341 2.341 0 0 0-1.829.864L224.737 95.98V78.808a2.486 2.486 0 0 0-2.475-2.484 2.291 2.291 0 0 0-1.721.729 2.446 2.446 0 0 0-.7 1.755v33.318a2.392 2.392 0 0 0 2.42 2.43 2.429 2.429 0 0 0 1.748-.7 2.306 2.306 0 0 0 .727-1.728v-10.1l6.131-6.21 13.877 17.766a2.251 2.251 0 0 0 1.936.972 2.338 2.338 0 0 0 1.721-.7 2.116 2.116 0 0 0 .646-1.674 2.517 2.517 0 0 0-.592-1.566z" transform="translate(-52.25 -46)"/></g><path id="Best" class="cls-2" d="M74.146 91.541a9.112 9.112 0 0 0 3.792-3.1A9.754 9.754 0 0 0 76.27 76.1q-3.147-2.645-8.9-2.646H54.675a2.29 2.29 0 0 0-1.721.729 2.444 2.444 0 0 0-.7 1.755v32.778a2.393 2.393 0 0 0 2.42 2.43h13.017q7.153 0 10.488-2.808a9.618 9.618 0 0 0 3.335-7.776 8.168 8.168 0 0 0-2.071-5.724 11.888 11.888 0 0 0-5.3-3.294zm.591-7.941a5.589 5.589 0 0 1-1.937 4.539q-1.936 1.62-6.723 1.62h-8.928V78.041h9.843a9.452 9.452 0 0 1 5.674 1.512 4.767 4.767 0 0 1 2.071 4.05zm-7.53 22.95H57.149V94.187h10.112q9.52 0 9.52 6.156a5.383 5.383 0 0 1-2.178 4.59q-2.178 1.62-7.4 1.62zm42.061-1.35a2.126 2.126 0 0 0-.968.216 16.374 16.374 0 0 1-3.308 1.242 16.1 16.1 0 0 1-3.953.432 9.611 9.611 0 0 1-6.616-2.106 8.888 8.888 0 0 1-2.8-5.886h18.237a2.353 2.353 0 0 0 2.474-2.43 15.337 15.337 0 0 0-1.506-6.777 12.03 12.03 0 0 0-4.411-4.968 12.473 12.473 0 0 0-6.884-1.863 12.324 12.324 0 0 0-7.153 2 12.013 12.013 0 0 0-4.3 5.238 17.651 17.651 0 0 0-1.4 7.074q0 6.8 3.684 10.557t10.247 3.753a16.74 16.74 0 0 0 9.412-2.376 2.335 2.335 0 0 0 1.4-2 1.966 1.966 0 0 0-.646-1.512 2.155 2.155 0 0 0-1.506-.594zm-9.735-17.979a8.382 8.382 0 0 1 3.6.837 7.42 7.42 0 0 1 2.985 2.619 8.679 8.679 0 0 1 1.371 4.428H91.626a8.838 8.838 0 0 1 1.345-4.428 7.231 7.231 0 0 1 2.958-2.619 8.373 8.373 0 0 1 3.6-.837zm22.643 4.1a3.144 3.144 0 0 1 1.641-2.727 8.371 8.371 0 0 1 4.545-1.053 20.543 20.543 0 0 1 6.131.972 2.986 2.986 0 0 0 .7.108 2.032 2.032 0 0 0 1.532-.648 2.123 2.123 0 0 0 .619-1.512 2.178 2.178 0 0 0-.4-1.242 2.02 2.02 0 0 0-1.157-.81 22.357 22.357 0 0 0-7.8-1.35q-5.056 0-7.772 2.376a7.8 7.8 0 0 0-2.716 6.156 6.254 6.254 0 0 0 1.479 4.347 9.211 9.211 0 0 0 3.55 2.457 40.381 40.381 0 0 0 5.244 1.566 28.025 28.025 0 0 1 4.491 1.458 2.043 2.043 0 0 1 1.372 1.89q0 3.834-5.97 3.834a15.933 15.933 0 0 1-3.873-.432 21.645 21.645 0 0 1-3.442-1.188 2.363 2.363 0 0 0-.969-.216 1.95 1.95 0 0 0-1.506.648 2.169 2.169 0 0 0-.591 1.512 2.065 2.065 0 0 0 .914 1.782 19.943 19.943 0 0 0 9.789 2.43q4.948 0 7.665-2.268a7.146 7.146 0 0 0 2.716-5.724 6.689 6.689 0 0 0-1.425-4.482 8.555 8.555 0 0 0-3.416-2.457 44.876 44.876 0 0 0-5.163-1.593 21.386 21.386 0 0 1-4.68-1.458 2.5 2.5 0 0 1-1.506-2.376zm35.768 15.552a2.929 2.929 0 0 0-.619.054c-.161.036-.314.072-.457.108a7.429 7.429 0 0 1-2.151.324 4.992 4.992 0 0 1-2.5-.567q-1-.567-1-2.673V87.815h6.083a1.989 1.989 0 0 0 1.506-.621 2.074 2.074 0 0 0 .592-1.485 2.029 2.029 0 0 0-2.1-2.106h-6.077v-4.32a1.092 1.092 0 0 0-.3-.756.947.947 0 0 0-.721-.327 1.356 1.356 0 0 0-.915.486l-7.315 7.182a1.133 1.133 0 0 0-.484.918 1.013 1.013 0 0 0 1.022 1.026h3.819v16.74q0 7.128 7.853 7.128a10.49 10.49 0 0 0 4.464-.972 2.042 2.042 0 0 0 1.237-1.89 1.837 1.837 0 0 0-.591-1.377 1.894 1.894 0 0 0-1.345-.567z" transform="translate(-52.25 -46)"/></svg>