<svg width="547" height="829" viewBox="0 0 547 829" xmlns="http://www.w3.org/2000/svg" xmlns:xlink="http://www.w3.org/1999/xlink"><title>Page 1</title><defs><path id="a" d="M334.345.254H.68V829h333.665V.254z"/><path id="c" d="M0 548.585V.15h546.186v548.435H0z"/></defs><g fill="none" fill-rule="evenodd"><g transform="translate(106 -.254)"><mask id="b" fill="#fff"><use xlink:href="#a"/></mask><path d="M.68.254v820.18c0 7.047 8.044 11.067 13.68 6.84l148.023-111.017a8.548 8.548 0 0 1 10.259 0l148.025 111.018c5.635 4.226 13.678.206 13.678-6.84V.254H.68z" fill="#78909C" mask="url(#b)"/></g><g transform="translate(0 100.746)"><mask id="d" fill="#fff"><use xlink:href="#c"/></mask><path d="M273.094 548.585c-8.34 0-16.03-12.613-24.176-13.361-8.29-.763-18.155 10.222-26.211 8.72-8.17-1.524-13.408-15.336-21.301-17.585-7.98-2.273-19.71 6.696-27.371 3.719-7.724-3.002-10.316-17.546-17.675-21.225-7.405-3.7-20.588 2.95-27.585-1.397-7.025-4.365-6.902-19.136-13.475-24.112-6.588-4.988-20.768-.86-26.863-6.422-6.1-5.564-3.285-20.064-8.851-26.164-5.561-6.094-20.26-4.618-25.246-11.207-4.976-6.573.436-20.314-3.93-27.338-4.346-6.998-19.066-8.234-22.767-15.638-3.68-7.36 4.163-19.871 1.16-27.596-2.975-7.66-17.216-11.591-19.488-19.57-2.25-7.893 7.774-18.736 6.25-26.904C14.064 314.45.797 307.952.034 299.663c-.75-8.145 11.099-16.957 11.099-25.296 0-8.34-11.848-17.151-11.1-25.298.764-8.29 14.03-14.787 15.532-22.842 1.524-8.17-8.497-19.013-6.248-26.906 2.272-7.981 16.512-11.911 19.489-19.572 3.004-7.724-4.84-20.235-1.158-27.597 3.699-7.403 18.422-8.64 22.766-15.637 4.368-7.023-1.044-20.766 3.932-27.34 4.987-6.587 19.686-5.111 25.245-11.205 5.567-6.1 2.753-20.6 8.853-26.165 6.094-5.56 20.275-1.431 26.863-6.42 6.573-4.975 6.45-19.745 13.476-24.11 6.995-4.348 20.179 2.304 27.585-1.396 7.358-3.68 9.95-18.222 17.676-21.225 7.658-2.977 19.387 5.994 27.366 3.72 7.893-2.247 13.13-16.06 21.302-17.584 8.054-1.501 17.918 9.483 26.207 8.722C257.066 12.762 264.755.15 273.094.15c8.34 0 16.029 12.613 24.178 13.362 8.289.76 18.154-10.223 26.21-8.721 8.17 1.523 13.407 15.336 21.3 17.585 7.98 2.273 19.709-6.697 27.372-3.72 7.723 3.004 10.315 17.546 17.676 21.225 7.403 3.702 20.588-2.95 27.583 1.399 7.025 4.364 6.902 19.136 13.475 24.112 6.59 4.987 20.77.859 26.866 6.42 6.1 5.565 3.285 20.065 8.85 26.164 5.559 6.096 20.258 4.619 25.243 11.208 4.977 6.574-.434 20.314 3.932 27.339 4.345 6.996 19.066 8.232 22.766 15.638 3.68 7.359-4.162 19.87-1.16 27.594 2.977 7.66 17.215 11.592 19.489 19.57 2.248 7.894-7.774 18.737-6.25 26.905 1.503 8.056 14.769 14.553 15.529 22.84.75 8.147-11.096 16.959-11.096 25.297 0 8.34 11.846 17.153 11.096 25.3-.76 8.289-14.03 14.786-15.531 22.84-1.524 8.17 8.5 19.014 6.25 26.908-2.273 7.98-16.512 11.91-19.491 19.57-3.001 7.725 4.839 20.238 1.162 27.598-3.702 7.404-18.422 8.64-22.768 15.636-4.367 7.025 1.043 20.767-3.931 27.34-4.99 6.589-19.686 5.11-25.248 11.207-5.565 6.1-2.75 20.599-8.851 26.165-6.094 5.56-20.274 1.432-26.863 6.419-6.573 4.976-6.452 19.747-13.476 24.11-6.995 4.347-20.18-2.304-27.584 1.397-7.361 3.679-9.954 18.222-17.675 21.224-7.66 2.977-19.39-5.994-27.37-3.72-7.892 2.248-13.13 16.06-21.3 17.584-8.055 1.502-17.92-9.484-26.207-8.721-8.15.748-15.838 13.36-24.176 13.36" fill="#F05451" mask="url(#d)"/></g><path d="M273.094 612.564c-130.931 0-237.451-106.52-237.451-237.451 0-130.93 106.52-237.45 237.45-237.45 130.932 0 237.45 106.52 237.45 237.45s-106.518 237.45-237.45 237.45" fill="#B72025"/><path d="M479.905 375.113c0 114.22-92.594 206.812-206.812 206.812-114.218 0-206.81-92.592-206.81-206.812 0-114.218 92.592-206.811 206.81-206.811s206.812 92.593 206.812 206.81" fill="#E63A34"/><path d="M273.094 187.764c110.95 0 201.476 87.376 206.566 197.07.148-3.223.246-6.461.246-9.721 0-114.218-92.594-206.811-206.812-206.811-114.22 0-206.811 92.593-206.811 206.81 0 3.268.097 6.514.246 9.743 5.078-109.703 95.606-197.091 206.565-197.091" fill="#D32E2E"/><path d="M177.466 353.635h8.94c3.95 0 6.956-.752 9.022-2.262 2.064-1.505 3.097-3.697 3.097-6.57 0-2.978-1.016-5.188-3.045-6.623-2.028-1.438-5.162-2.156-9.398-2.156h-8.616v17.611zm0-32.529h7.485c2.658 0 4.793-.7 6.409-2.1 1.616-1.4 2.423-3.231 2.423-5.493 0-2.37-.818-4.254-2.45-5.654-1.634-1.401-3.833-2.101-6.597-2.101h-7.27v15.349zm-5.764 47.88c-4.632 0-7.81-.79-9.532-2.37-1.724-1.58-2.586-4.541-2.586-8.887v-54.61c0-4.777.917-8.062 2.747-9.857 1.83-1.795 5.028-2.692 9.587-2.692h14.704c7.755 0 13.768 1.714 18.042 5.144 4.273 3.428 6.408 8.214 6.408 14.351 0 3.844-.79 7.02-2.37 9.533s-4.022 4.488-7.324 5.924c5.135 1.257 9.067 3.6 11.794 7.03 2.728 3.427 4.093 7.71 4.093 12.844 0 7.397-2.45 13.178-7.351 17.342-4.9 4.166-11.75 6.248-20.547 6.248h-17.665zm88.272-78.416c4.237 0 7.415.69 9.533 2.074 2.118 1.382 3.177 3.49 3.177 6.327 0 2.765-1.048 4.83-3.15 6.193-2.101 1.365-5.288 2.048-9.56 2.048h-14.542v14.002h12.55c4.272 0 7.46.683 9.56 2.046 2.1 1.365 3.15 3.447 3.15 6.249 0 2.8-1.05 4.873-3.15 6.22-2.1 1.346-5.288 2.02-9.56 2.02h-12.55v14.701h15.08c4.309 0 7.505.684 9.588 2.048 2.08 1.365 3.123 3.428 3.123 6.194 0 2.8-1.042 4.882-3.123 6.246-2.083 1.365-5.28 2.048-9.588 2.048H239.67c-4.633 0-7.81-.79-9.534-2.37-1.722-1.58-2.584-4.541-2.584-8.887v-54.61c0-4.777.914-8.062 2.747-9.857 1.83-1.795 5.027-2.692 9.585-2.692h20.089zm74.861 54.127c0 7.861-2.79 14.228-8.374 19.09-5.584 4.867-12.936 7.3-22.056 7.3-7.001 0-12.977-1.257-17.933-3.77-4.956-2.514-7.432-5.459-7.432-8.834 0-2.404.799-4.344 2.395-5.815 1.6-1.474 3.745-2.21 6.438-2.21 1.327 0 4.109.665 8.348 1.992 4.236 1.33 7.809 1.993 10.717 1.993 2.513 0 4.613-.77 6.3-2.315 1.689-1.542 2.532-3.464 2.532-5.762 0-2.477-.863-4.47-2.584-5.978-1.725-1.508-5.421-3.124-11.096-4.847-8.222-2.442-13.966-5.341-17.233-8.7-3.268-3.356-4.902-7.872-4.902-13.543 0-7.29 2.63-13.25 7.89-17.882 5.26-4.632 12.11-6.947 20.548-6.947 6.21 0 11.327 1.103 15.349 3.313 4.02 2.207 6.032 4.964 6.032 8.267 0 2.37-.71 4.228-2.128 5.574-1.418 1.346-3.384 2.02-5.898 2.02-1.4 0-3.68-.458-6.841-1.374-3.158-.916-5.546-1.375-7.162-1.375-2.657 0-4.775.62-6.354 1.86-1.58 1.238-2.371 2.863-2.371 4.873 0 3.195 3.484 5.89 10.45 8.08 1.615.502 2.873.897 3.769 1.185 7.503 2.512 12.978 5.68 16.427 9.505 3.447 3.825 5.169 8.59 5.169 14.3m19.282-37.486h-6.57c-4.31 0-7.506-.682-9.587-2.047-2.083-1.364-3.125-3.428-3.125-6.192 0-2.838 1.051-4.946 3.15-6.328 2.101-1.384 5.287-2.075 9.561-2.075h31.076c4.235 0 7.414.691 9.531 2.075 2.12 1.382 3.18 3.49 3.18 6.328 0 2.764-1.052 4.828-3.152 6.192-2.1 1.365-5.286 2.047-9.559 2.047h-6.626v50.087c0 4.273-.735 7.45-2.207 9.534-1.474 2.082-3.717 3.123-6.732 3.123-3.016 0-5.26-1.04-6.732-3.123-1.473-2.084-2.208-5.26-2.208-9.534v-50.087zM131.288 466.075c-10.244 0-18.496-3.375-24.749-10.125-6.258-6.75-9.384-15.663-9.384-26.738 0-10.82 3.237-19.667 9.718-26.546 6.478-6.877 14.68-10.317 24.606-10.317 5.842 0 10.779 1.118 14.818 3.351 4.036 2.236 6.055 4.836 6.055 7.803 0 1.916-.669 3.591-2.01 5.028-1.341 1.435-2.921 2.152-4.741 2.152-1.022 0-3.087-.454-6.198-1.363-3.113-.91-5.721-1.365-7.827-1.365-5.205 0-9.36 1.957-12.472 5.865-3.111 3.91-4.667 9.168-4.667 15.774 0 6.48 1.585 11.61 4.764 15.392 3.175 3.781 7.459 5.673 12.854 5.673 2.489 0 5.328-.6 8.52-1.796 3.191-1.197 5.296-1.796 6.32-1.796 1.627 0 3.093.704 4.405 2.108 1.306 1.404 1.962 3.015 1.962 4.834 0 3.29-2.116 6.121-6.344 8.498-4.23 2.377-9.44 3.567-15.63 3.567m44.234-30.209v17.762c0 3.798-.655 6.623-1.962 8.474-1.31 1.851-3.304 2.776-5.984 2.776-2.682 0-4.677-.925-5.984-2.776-1.31-1.85-1.963-4.675-1.963-8.474V404.7c0-3.796.652-6.63 1.963-8.498 1.307-1.866 3.302-2.8 5.984-2.8 2.68 0 4.673.934 5.984 2.8 1.307 1.868 1.962 4.702 1.962 8.498v16.469h29.203V404.7c0-3.796.652-6.63 1.964-8.498 1.306-1.866 3.301-2.8 5.982-2.8 2.682 0 4.673.934 5.985 2.8 1.307 1.868 1.964 4.702 1.964 8.498v48.928c0 3.798-.657 6.623-1.964 8.473-1.312 1.851-3.303 2.776-5.985 2.776-2.68 0-4.676-.925-5.982-2.776-1.312-1.85-1.964-4.675-1.964-8.474v-17.762h-29.203zm71.285-6.462c0 6.51 1.546 11.72 4.643 15.63 3.093 3.912 7.196 5.865 12.303 5.865 5.106 0 9.206-1.953 12.303-5.865 3.095-3.91 4.646-9.12 4.646-15.63 0-6.733-1.535-12.08-4.598-16.038-3.063-3.957-7.18-5.935-12.351-5.935-5.171 0-9.286 1.978-12.352 5.935-3.063 3.959-4.594 9.305-4.594 16.038m-17.283-.191c0-11.01 3.15-19.907 9.455-26.69 6.303-6.781 14.56-10.172 24.774-10.172 10.246 0 18.527 3.399 24.847 10.197 6.319 6.797 9.478 15.687 9.478 26.665 0 11.043-3.153 19.948-9.455 26.713-6.304 6.767-14.594 10.15-24.87 10.15-10.278 0-18.551-3.383-24.821-10.15-6.272-6.765-9.408-15.67-9.408-26.713m93.736 24.415c0 3.798-.655 6.623-1.965 8.473-1.308 1.853-3.302 2.777-5.984 2.777-2.679 0-4.674-.924-5.983-2.777-1.31-1.85-1.962-4.675-1.962-8.473V404.7c0-3.797.652-6.63 1.962-8.497 1.31-1.868 3.304-2.8 5.983-2.8 2.682 0 4.676.932 5.984 2.8 1.31 1.867 1.964 4.7 1.964 8.497v48.927zm43.42 12.448c-10.244 0-18.497-3.375-24.75-10.125-6.257-6.75-9.383-15.663-9.383-26.738 0-10.82 3.238-19.667 9.718-26.546 6.478-6.877 14.679-10.317 24.608-10.317 5.84 0 10.777 1.118 14.816 3.351 4.035 2.236 6.056 4.836 6.056 7.803 0 1.916-.67 3.591-2.01 5.028-1.341 1.435-2.922 2.152-4.74 2.152-1.024 0-3.09-.454-6.2-1.363-3.112-.91-5.721-1.365-7.827-1.365-5.205 0-9.36 1.957-12.471 5.865-3.112 3.91-4.668 9.168-4.668 15.774 0 6.48 1.586 11.61 4.763 15.392 3.175 3.781 7.46 5.673 12.855 5.673 2.489 0 5.327-.6 8.522-1.796 3.188-1.197 5.296-1.796 6.319-1.796 1.625 0 3.092.704 4.404 2.108 1.306 1.404 1.963 3.015 1.963 4.834 0 3.29-2.117 6.121-6.342 8.498-4.234 2.377-9.441 3.567-15.633 3.567m57.16-71.762c3.764 0 6.59.614 8.475 1.843 1.88 1.23 2.824 3.104 2.824 5.625 0 2.458-.934 4.293-2.8 5.505-1.868 1.214-4.701 1.82-8.498 1.82h-12.925v12.447h11.153c3.798 0 6.63.607 8.498 1.82 1.868 1.212 2.8 3.062 2.8 5.551 0 2.491-.932 4.333-2.8 5.531-1.868 1.196-4.7 1.794-8.498 1.794h-11.153v13.07h13.404c3.83 0 6.669.607 8.52 1.82 1.85 1.212 2.777 3.048 2.777 5.505 0 2.49-.927 4.34-2.776 5.552-1.852 1.214-4.69 1.82-8.521 1.82h-18.53c-4.114 0-6.94-.702-8.471-2.107-1.531-1.403-2.298-4.036-2.298-7.899v-48.543c0-4.244.814-7.165 2.442-8.76 1.626-1.596 4.468-2.394 8.522-2.394h17.856zm-300.06-69.086l7.565 15.328 16.915 2.458-12.24 11.93 2.888 16.848-15.129-7.955-15.128 7.955 2.89-16.847L99.3 343.012l16.917-2.458zm289.02 0l7.567 15.328 16.913 2.458-12.238 11.93 2.89 16.848-15.132-7.955-15.128 7.955 2.89-16.847-12.24-11.931 16.913-2.458z" fill="#D32E2E"/><path d="M180.529 350.572h8.94c3.95 0 6.957-.754 9.022-2.262 2.064-1.507 3.096-3.699 3.096-6.57 0-2.98-1.014-5.189-3.043-6.625-2.03-1.435-5.161-2.154-9.397-2.154h-8.618v17.611zm0-32.53h7.485c2.658 0 4.795-.7 6.41-2.1 1.616-1.4 2.425-3.23 2.425-5.493 0-2.37-.817-4.256-2.451-5.654-1.634-1.401-3.833-2.103-6.6-2.103h-7.27v15.35zm-5.762 47.88c-4.632 0-7.81-.79-9.534-2.37-1.724-1.58-2.584-4.542-2.584-8.887v-54.61c0-4.774.915-8.062 2.746-9.856 1.832-1.796 5.027-2.694 9.587-2.694h14.703c7.755 0 13.769 1.716 18.04 5.144 4.275 3.428 6.41 8.214 6.41 14.353 0 3.841-.79 7.02-2.37 9.532-1.58 2.514-4.02 4.49-7.324 5.925 5.134 1.257 9.067 3.6 11.796 7.029 2.729 3.428 4.092 7.71 4.092 12.844 0 7.397-2.45 13.178-7.351 17.343-4.902 4.166-11.75 6.246-20.546 6.246h-17.665zm88.271-78.416c4.236 0 7.416.69 9.532 2.074 2.119 1.382 3.179 3.49 3.179 6.328 0 2.764-1.051 4.828-3.15 6.193-2.101 1.365-5.288 2.048-9.561 2.048h-14.541v14.002h12.548c4.272 0 7.459.683 9.559 2.046 2.1 1.365 3.152 3.447 3.152 6.248 0 2.8-1.052 4.874-3.152 6.22-2.1 1.347-5.287 2.02-9.559 2.02h-12.548v14.703h15.079c4.31 0 7.505.682 9.586 2.047 2.084 1.364 3.126 3.429 3.126 6.194 0 2.799-1.042 4.883-3.126 6.247-2.081 1.364-5.276 2.046-9.586 2.046h-20.842c-4.633 0-7.81-.79-9.532-2.37-1.724-1.58-2.587-4.541-2.587-8.886v-54.611c0-4.775.917-8.061 2.747-9.856 1.831-1.795 5.027-2.693 9.586-2.693h20.09zm74.862 54.126c0 7.864-2.792 14.228-8.376 19.092-5.582 4.865-12.933 7.298-22.053 7.298-7.002 0-12.98-1.256-17.936-3.77-4.954-2.514-7.432-5.458-7.432-8.832 0-2.406.798-4.345 2.398-5.817 1.597-1.473 3.74-2.208 6.435-2.208 1.33 0 4.112.665 8.347 1.993 4.239 1.327 7.81 1.992 10.718 1.992 2.513 0 4.614-.77 6.302-2.315 1.686-1.544 2.532-3.465 2.532-5.763 0-2.478-.863-4.47-2.587-5.979-1.723-1.507-5.42-3.124-11.095-4.847-8.22-2.44-13.965-5.34-17.233-8.697-3.27-3.358-4.9-7.873-4.9-13.546 0-7.288 2.63-13.248 7.889-17.88 5.26-4.63 12.109-6.947 20.547-6.947 6.212 0 11.328 1.102 15.35 3.311 4.02 2.21 6.032 4.964 6.032 8.268 0 2.37-.711 4.227-2.13 5.574-1.416 1.346-3.383 2.02-5.896 2.02-1.4 0-3.681-.459-6.84-1.375-3.16-.915-5.548-1.372-7.163-1.372-2.656 0-4.775.62-6.354 1.858-1.581 1.24-2.37 2.862-2.37 4.874 0 3.194 3.482 5.888 10.448 8.08 1.616.501 2.872.896 3.77 1.183 7.505 2.513 12.98 5.682 16.427 9.506 3.446 3.823 5.17 8.59 5.17 14.3m19.28-37.485h-6.57c-4.308 0-7.504-.683-9.587-2.047-2.081-1.365-3.123-3.43-3.123-6.193 0-2.837 1.049-4.946 3.15-6.329 2.1-1.383 5.288-2.074 9.56-2.074h31.076c4.237 0 7.414.691 9.532 2.074 2.12 1.383 3.178 3.492 3.178 6.33 0 2.762-1.051 4.827-3.151 6.192-2.101 1.364-5.286 2.047-9.56 2.047h-6.624v50.086c0 4.273-.736 7.452-2.208 9.535-1.472 2.081-3.716 3.122-6.732 3.122-3.017 0-5.26-1.04-6.732-3.122-1.472-2.083-2.21-5.262-2.21-9.535v-50.086zM134.351 463.01c-10.243 0-18.495-3.375-24.75-10.125-6.254-6.75-9.382-15.662-9.382-26.737 0-10.819 3.238-19.667 9.718-26.547 6.478-6.877 14.68-10.316 24.606-10.316 5.84 0 10.778 1.118 14.817 3.352 4.036 2.234 6.055 4.834 6.055 7.803 0 1.915-.67 3.59-2.01 5.026-1.341 1.436-2.918 2.154-4.74 2.154-1.022 0-3.085-.454-6.197-1.364-3.112-.91-5.721-1.364-7.828-1.364-5.203 0-9.36 1.955-12.472 5.865-3.112 3.909-4.669 9.168-4.669 15.773 0 6.48 1.587 11.609 4.764 15.391 3.176 3.782 7.46 5.674 12.856 5.674 2.488 0 5.328-.599 8.52-1.796 3.19-1.197 5.296-1.795 6.32-1.795 1.626 0 3.093.703 4.404 2.107 1.308 1.404 1.964 3.016 1.964 4.835 0 3.288-2.117 6.12-6.345 8.497-4.23 2.378-9.439 3.567-15.63 3.567m44.235-30.208v17.761c0 3.798-.656 6.623-1.963 8.473-1.31 1.853-3.303 2.777-5.986 2.777-2.678 0-4.676-.924-5.983-2.777-1.31-1.85-1.96-4.675-1.96-8.473v-48.927c0-3.796.65-6.63 1.96-8.497 1.307-1.866 3.305-2.8 5.983-2.8 2.683 0 4.675.934 5.986 2.8 1.307 1.867 1.963 4.701 1.963 8.497v16.469h29.203v-16.469c0-3.796.652-6.63 1.962-8.497 1.308-1.866 3.304-2.8 5.983-2.8 2.682 0 4.675.934 5.984 2.8 1.31 1.867 1.964 4.701 1.964 8.497v48.927c0 3.798-.654 6.623-1.964 8.473-1.309 1.853-3.302 2.777-5.984 2.777-2.679 0-4.675-.924-5.983-2.777-1.31-1.85-1.962-4.675-1.962-8.473v-17.761h-29.203zm71.283-6.462c0 6.51 1.546 11.72 4.643 15.63 3.094 3.91 7.196 5.864 12.304 5.864 5.104 0 9.207-1.954 12.303-5.865 3.094-3.909 4.645-9.12 4.645-15.629 0-6.735-1.533-12.08-4.598-16.039-3.063-3.956-7.18-5.936-12.35-5.936s-9.288 1.98-12.35 5.936c-3.067 3.96-4.597 9.304-4.597 16.04m-17.28-.193c0-11.01 3.148-19.908 9.454-26.689 6.3-6.783 14.557-10.174 24.773-10.174 10.245 0 18.528 3.4 24.846 10.197 6.32 6.798 9.478 15.688 9.478 26.666 0 11.043-3.154 19.947-9.454 26.712-6.304 6.767-14.596 10.15-24.87 10.15-10.278 0-18.55-3.383-24.822-10.15-6.272-6.765-9.406-15.669-9.406-26.712m93.733 24.415c0 3.798-.653 6.623-1.961 8.474-1.311 1.852-3.304 2.776-5.984 2.776-2.681 0-4.677-.924-5.984-2.776-1.311-1.851-1.964-4.676-1.964-8.474v-48.927c0-3.796.653-6.63 1.964-8.497 1.307-1.866 3.303-2.8 5.984-2.8 2.68 0 4.673.934 5.984 2.8 1.308 1.867 1.96 4.7 1.96 8.497v48.927zm43.422 12.447c-10.245 0-18.498-3.375-24.75-10.125-6.256-6.75-9.383-15.662-9.383-26.737 0-10.819 3.237-19.667 9.718-26.547 6.48-6.877 14.68-10.316 24.607-10.316 5.84 0 10.777 1.118 14.816 3.352 4.036 2.234 6.056 4.834 6.056 7.803 0 1.915-.67 3.59-2.01 5.026-1.34 1.436-2.92 2.154-4.74 2.154-1.023 0-3.087-.454-6.2-1.364-3.11-.91-5.719-1.364-7.827-1.364-5.203 0-9.359 1.955-12.472 5.865-3.11 3.909-4.668 9.168-4.668 15.773 0 6.48 1.587 11.609 4.766 15.391 3.173 3.782 7.457 5.674 12.852 5.674 2.49 0 5.33-.599 8.522-1.796 3.191-1.197 5.296-1.795 6.32-1.795 1.627 0 3.094.703 4.404 2.107 1.308 1.404 1.963 3.016 1.963 4.835 0 3.288-2.116 6.12-6.343 8.497-4.23 2.378-9.44 3.567-15.63 3.567m57.159-71.762c3.766 0 6.59.615 8.473 1.843 1.884 1.23 2.826 3.104 2.826 5.625 0 2.458-.935 4.293-2.802 5.505-1.865 1.213-4.7 1.82-8.497 1.82H413.98v12.446h11.154c3.796 0 6.63.607 8.498 1.82 1.866 1.213 2.8 3.064 2.8 5.553 0 2.49-.934 4.332-2.8 5.53-1.868 1.195-4.702 1.794-8.498 1.794H413.98v13.07h13.404c3.83 0 6.668.607 8.521 1.818 1.85 1.214 2.777 3.05 2.777 5.507 0 2.49-.927 4.341-2.777 5.553-1.853 1.213-4.69 1.82-8.52 1.82h-18.527c-4.118 0-6.942-.702-8.474-2.108-1.533-1.403-2.298-4.035-2.298-7.899v-48.543c0-4.244.813-7.164 2.441-8.76 1.63-1.596 4.468-2.394 8.522-2.394h17.856zm-300.06-69.087l7.565 15.328 16.915 2.458-12.24 11.931 2.89 16.847-15.13-7.955-15.13 7.955 2.89-16.847-12.24-11.93 16.915-2.459zm289.021 0l7.564 15.328 16.915 2.458-12.239 11.931 2.89 16.847-15.13-7.955-15.13 7.955 2.89-16.847-12.239-11.93 16.914-2.459z" fill="#FFF"/></g></svg>