<svg id="Layer_1" xmlns="http://www.w3.org/2000/svg" viewBox="0 0 304.4 392" enable-background="new 0 0 304.4 392"><style>.st0{filter:url(#Adobe_OpacityMaskFilter)}.st1,.st2,.st3{fill:#063566}</style><title>Page 1</title><g transform="translate(-63 -62)" id="Page-1"><g id="Group-3"><defs><filter id="Adobe_OpacityMaskFilter" filterUnits="userSpaceOnUse" x="63" y="62" width="304.4" height="392"><feColorMatrix values="1 0 0 0 0 0 1 0 0 0 0 0 1 0 0 0 0 0 1 0"/></filter></defs><mask maskUnits="userSpaceOnUse" x="63" y="62" width="304.4" height="392" id="mask-2"><g class="st0"><path id="path-1" class="st1" d="M215.2 454H63V62h304.4v392H63V62h304.4v392z"/></g></mask><path id="Fill-1" class="st2" d="M334.1 413.1c0 4.2-3.4 7.5-7.5 7.5H103.9c-4.2 0-7.5-3.4-7.5-7.5V102c0-4.2 3.4-7.5 7.5-7.5v.8h222.7c4.2 0 7.5 3.4 7.5 7.5v310.3zM326.6 62H103.9C81.4 62 63 80.3 63 102.9v310.2c0 22.5 18.3 40.9 40.9 40.9h223.5c21.7 0 40-18.3 40-40V102.9c.1-22.6-18.3-40.9-40.8-40.9z"/></g><path id="Fill-4" class="st3" d="M234.8 278.6c-6.9 8.4-13.8 16.1-19.4 21.9-5.4-5.5-12.1-12.8-18.8-20.9-25-30-27.6-44.5-27.6-49.4 0-12 7.8-21.8 17.4-21.8 6 0 11.7 4 14.9 10.5 2.7 5.4 8.2 8.9 14.3 8.9 6.1 0 11.7-3.4 14.3-8.9 3.2-6.5 8.9-10.5 14.9-10.5 9.6 0 17.4 9.8 17.4 21.8.1 3.6-1.9 17.2-27.4 48.4m10-102c-10.7 0-20.9 3.8-29.2 10.4-8.3-6.6-18.5-10.4-29.2-10.4-27.3 0-49.4 24.2-49.4 53.8 0 18.6 11.4 41.4 35 69.8 16.2 19.4 32.1 34.2 32.8 34.8 3 2.8 7 4.2 10.9 4.2 4 0 8-1.5 11.1-4.5.6-.6 16.6-15.9 32.6-35.6 23.5-28.7 35-51.2 35-68.7-.1-29.7-22.3-53.8-49.6-53.8"/><path id="Fill-6" class="st3" d="M159.9 140.8c0 9.3-7.5 16.8-16.8 16.8s-16.8-7.5-16.8-16.8 7.5-16.8 16.8-16.8 16.8 7.5 16.8 16.8"/><path id="Fill-8" class="st3" d="M305 375.2c0 9.3-7.5 16.8-16.8 16.8s-16.8-7.5-16.8-16.8 7.5-16.8 16.8-16.8 16.8 7.5 16.8 16.8"/></g></svg>