<svg xmlns="http://www.w3.org/2000/svg" viewBox="0 0 174.4 180.3"><g fill="#1e3365"><path d="M49.3 125.5l-15-17.6-15 17.6 15 17.6 15-17.6zm52.8 0l-15-17.6-15 17.6 15 17.6 15-17.6zm52.8 0l-15-17.6-15 17.6 15 17.6 15-17.6zm0 0"/><path d="M121.9 69.9H0v110.4h174.4V69.9h-52.5zm-69.1 94.4H16V85.9h36.8v78.4zm52.8 0H68.8V85.9h36.8v78.4zm52.8 0h-36.8V85.9h36.8v78.4zM72 47.7l15.5-8.1 15.5 8.1-3-17.3 12.5-12.2-17.3-2.5L87.5 0l-7.7 15.7-17.3 2.5L75 30.4l-3 17.3zm49.1-2.6l-3 17.3 15.5-8.1 15.5 8.1-3-17.3 12.5-12.2-17.3-2.5-7.8-15.7-7.7 15.7-17.3 2.5 12.6 12.2zM25.8 62.4l15.5-8.1 15.5 8.1-3-17.3 12.5-12.2L49 30.4l-7.7-15.7-7.8 15.7-17.3 2.5 12.5 12.2-2.9 17.3zm0 0"/></g></svg>