<svg id="Layer_1" xmlns="http://www.w3.org/2000/svg" xmlns:xlink="http://www.w3.org/1999/xlink" viewBox="0 0 459.8 490"><style>.st0{clip-path:url(#SVGID_2_)}</style><g fill="#1e3365"><defs><path id="SVGID_1_" d="M0 0h459.8v490H0z"/></defs><clipPath id="SVGID_2_"><use xlink:href="#SVGID_1_" overflow="visible"/></clipPath><path class="st0" d="M229.5 18.9c-94.4 0-171.2 76.8-171.2 171.2 0 66.7 38.4 124.6 94.2 152.9v102c0 24.6 20 44.6 44.7 44.6H262c24.6 0 44.6-20 44.6-44.6V343c55.8-28.2 94.2-86.2 94.2-152.9 0-94.4-76.9-171.2-171.3-171.2zm13.3 312.8c-4.4.4-8.8.6-13.3.6s-8.9-.2-13.3-.6c1-19.9.5-57.8-13.6-91.2h53.8c-14.1 33.4-14.5 71.3-13.6 91.2zm34.8 83.6h-96v-60.9c15.2 4.5 31.4 6.9 48 6.9s32.8-2.4 48-6.9v60.9zm0 29.7c0 8.6-7 15.6-15.6 15.6h-64.8c-8.6 0-15.6-7-15.6-15.6v-.6h96v.6zm-5.9-119.1c-.7-22.4 1.2-63.7 21-91.5 3.2-4.4 3.6-10.2 1.1-15.1-2.5-4.8-7.5-7.9-12.9-7.9H178.2c-5.4 0-10.4 3-12.9 7.9-2.5 4.8-2.1 10.7 1.1 15.1 19.8 27.8 21.7 69.1 21 91.5-57.9-18-100-72.1-100-135.8 0-78.4 63.8-142.2 142.2-142.2 78.4 0 142.2 63.8 142.2 142.2-.1 63.7-42.2 117.8-100.1 135.8zM42 62.5c2.8 2.8 6.5 4.2 10.3 4.2 3.7 0 7.4-1.4 10.3-4.2 5.7-5.7 5.7-14.9 0-20.5L24.8 4.3c-5.7-5.7-14.9-5.7-20.5 0-5.7 5.7-5.7 14.9 0 20.5L42 62.5zm364.8 4.3c3.7 0 7.4-1.4 10.3-4.2l37.8-37.8c5.7-5.7 5.7-14.9 0-20.5-5.7-5.7-14.9-5.7-20.5 0L396.5 42c-5.7 5.7-5.7 14.9 0 20.5 2.9 2.9 6.6 4.3 10.3 4.3zm10.3 250.9c-5.7-5.7-14.9-5.7-20.5 0-5.7 5.7-5.7 14.9 0 20.5l37.7 37.8c2.8 2.8 6.6 4.2 10.3 4.2 3.7 0 7.4-1.4 10.3-4.2 5.7-5.7 5.7-14.9 0-20.5l-37.8-37.8zm-375.1 0L4.3 355.4c-5.7 5.7-5.7 14.9 0 20.5 2.8 2.8 6.5 4.2 10.3 4.2 3.7 0 7.4-1.4 10.3-4.2l37.8-37.8c5.7-5.7 5.7-14.9 0-20.5-5.8-5.6-15-5.6-20.7.1zm0 0"/></g></svg>