<svg xmlns="http://www.w3.org/2000/svg" viewBox="0 0 300 300" width="512" height="512"><path d="M63.784 170.838h34.595a3.24 3.24 0 0 0 3.241-3.244V133a3.24 3.24 0 0 0-3.241-3.244H63.784A3.242 3.242 0 0 0 60.542 133v34.594a3.242 3.242 0 0 0 3.242 3.244zm68.916 0h34.601a3.245 3.245 0 0 0 3.241-3.244V133a3.245 3.245 0 0 0-3.241-3.244H132.7a3.245 3.245 0 0 0-3.242 3.244v34.594a3.245 3.245 0 0 0 3.242 3.244zm68.921 0h34.595a3.24 3.24 0 0 0 3.241-3.244V133a3.24 3.24 0 0 0-3.241-3.244h-34.595A3.24 3.24 0 0 0 198.38 133v34.594a3.24 3.24 0 0 0 3.241 3.244zM63.784 239.757h34.595a3.242 3.242 0 0 0 3.241-3.245v-34.593a3.242 3.242 0 0 0-3.241-3.245H63.784a3.243 3.243 0 0 0-3.242 3.245v34.593a3.243 3.243 0 0 0 3.242 3.245zm68.916 0h34.601a3.246 3.246 0 0 0 3.241-3.245v-34.593a3.246 3.246 0 0 0-3.241-3.245H132.7a3.246 3.246 0 0 0-3.242 3.245v34.593a3.246 3.246 0 0 0 3.242 3.245zm68.921 0h34.595a3.242 3.242 0 0 0 3.241-3.245v-34.593a3.242 3.242 0 0 0-3.241-3.245h-34.595a3.242 3.242 0 0 0-3.241 3.245v34.593a3.242 3.242 0 0 0 3.241 3.245z" fill="#788f9b"/><path d="M291.894 5.676H255v8.976c0 10.275-8.328 18.605-18.605 18.605h-2.79c-10.276 0-18.605-8.329-18.605-18.605V5.676h-45v8.976c0 10.275-8.328 18.605-18.605 18.605h-2.79c-10.276 0-18.605-8.329-18.605-18.605V5.676H85v8.976c0 10.275-8.328 18.605-18.605 18.605h-2.79C53.328 33.256 45 24.927 45 14.651V5.676H8.106A8.107 8.107 0 0 0 0 13.783v272.433a8.107 8.107 0 0 0 8.106 8.108h283.787a8.107 8.107 0 0 0 8.106-8.108V13.783a8.106 8.106 0 0 0-8.105-8.107zM275.674 270H24.326V98.918h251.348V270z" fill="#788f9b"/></svg>