<svg xmlns="http://www.w3.org/2000/svg" viewBox="0 0 326.2 409.6"><g fill="#1e3365"><path d="M112 193.5c-5.9-5.1-13.6-8.1-21.6-8.1-18 0-32.7 14.4-32.7 32.1 0 34.4 49.1 61.9 51.2 63.1 1 .5 2 .8 3.1.8s2.1-.3 3.1-.8c2.1-1.2 51.2-28.7 51.2-63.1 0-17.7-14.6-32.1-32.7-32.1-8.1 0-15.7 3-21.6 8.1zm41.4 24.1c0 20.6-27.5 41.6-41.5 50.1-13.9-8.4-41.5-29.4-41.5-50.1 0-10.6 8.9-19.3 19.9-19.3 6.6 0 12.7 3.1 16.4 8.4 1.2 1.7 3.2 2.7 5.2 2.7 2.1 0 4-1 5.2-2.7 3.7-5.3 9.8-8.4 16.4-8.4 11-.1 19.9 8.6 19.9 19.3zm0 0"/><path d="M294.2 0H134.3c-17.6 0-32 14.3-32 32v19.2H32c-17.6 0-32 14.3-32 32v294.5c0 17.6 14.3 32 32 32h159.9c17.6 0 32-14.3 32-32v-19.2h70.3c17.6 0 32-14.3 32-32V32c0-17.7-14.4-32-32-32zm-83.1 95.8v281.8c0 10.6-8.6 19.2-19.2 19.2H32c-10.6 0-19.2-8.6-19.2-19.2V83.1C12.8 72.6 21.4 64 32 64h160.1c10.6 0 19.2 8.6 19.2 19.2v12.6zm-64-44.6v-6.4h10.1l6.4 6.4h-16.5zm28.2-6.4h20.3l9.1 9.1c-3.9-1.7-8.3-2.7-12.8-2.7h-10.1l-6.5-6.4zm38.4 0H234l47.4 47.4v20.3l-67.7-67.7zm38.4 0h29.3v29.3l-29.3-29.3zm-30.9 25.5l60.2 60.2v20.3l-57.5-57.5V83.1c0-4.5-1-8.9-2.7-12.8zm2.7 214.9v-20.3l48.5 48.5h-20.3l-28.2-28.2zm10.1 28.2h-10.1v-10.1l10.1 10.1zm-10.1-66.6v-20.3l57.5 57.6v20.3l-57.5-57.6zm0-38.4v-20.3l57.5 57.6V266l-57.5-57.6zm0-38.4v-20.3l57.5 57.6v20.3L223.9 170zm0-38.3v-20.3l57.5 57.5v20.3l-57.5-57.5zm89.5 194.8c0 10.6-8.6 19.2-19.2 19.2h-70.3v-19.5h64.9c.1 0 .2 0 .3-.1.1 0 .2-.1.3-.1.1 0 .2 0 .3-.1.1 0 .2-.1.3-.1.1 0 .2-.1.3-.1.1 0 .2-.1.3-.1.1 0 .2-.1.3-.1.1 0 .2-.1.3-.2.1-.1.2-.1.3-.2.1-.1.2-.1.3-.2l.2-.2.9-.9.2-.2c.1-.1.1-.2.2-.3.1-.1.1-.2.2-.3.1-.1.1-.2.2-.3.1-.1.1-.2.1-.3 0-.1.1-.2.1-.3 0-.1.1-.2.1-.3 0-.1.1-.2.1-.3 0-.1.1-.2.1-.3 0-.1.1-.2.1-.3 0-.1 0-.2.1-.4V38.4c0-3.5-2.9-6.4-6.4-6.4H140.7c-3.5 0-6.4 2.9-6.4 6.4v12.8h-19.2V32c0-10.6 8.6-19.2 19.2-19.2h159.9c10.6 0 19.2 8.6 19.2 19.2v294.5zm0 0"/><path d="M38 136.6l3.2-8.6h19.9l3.2 8.6c1 2.6 3.4 4.2 6 4.2.7 0 1.5-.1 2.2-.4 3.3-1.2 5-4.9 3.7-8.2l-19-51.3c0-.1-.1-.1-.1-.2s-.1-.2-.1-.3c0-.1-.1-.2-.1-.3 0-.1-.1-.2-.1-.3-.1-.1-.1-.2-.2-.3-.1-.1-.1-.2-.2-.2-.1-.1-.1-.2-.2-.3-.2 0-.2-.1-.3-.1-.1-.1-.1-.2-.2-.2-.1-.1-.2-.1-.2-.2l-.2-.2c-.1-.1-.2-.1-.3-.2-.1-.1-.2-.1-.2-.2-.1-.1-.2-.1-.3-.2-.1 0-.2-.1-.3-.1-.1-.1-.2-.1-.3-.1-.1 0-.2-.1-.3-.1-.1 0-.1-.1-.2-.1h-.1c-.1 0-.2-.1-.3-.1-.1 0-.2-.1-.3-.1-.1 0-.2-.1-.3-.1-.1 0-.2 0-.3-.1h-1.8c-.1 0-.2 0-.3.1-.1 0-.2 0-.3.1-.1 0-.2.1-.3.1-.1 0-.2.1-.3.1H49c-.1 0-.1.1-.2.1s-.2.1-.3.1c-.1 0-.2.1-.3.2-.1 0-.2.1-.3.1-.1.1-.2.1-.3.2l-.2.2c-.1.1-.2.1-.3.2l-.2.2c-.1.1-.2.1-.2.2l-.2.2c-.1.1-.1.2-.2.2-.1.1-.1.2-.2.3-.1.1-.1.2-.2.2-.1.1-.1.2-.2.3-.1.1-.1.2-.1.3-.1.1-.1.2-.1.3 0 .1-.1.2-.1.3 0 .1-.1.1-.1.2l-19.3 51c-1.2 3.3.4 7 3.7 8.2.7.3 1.5.4 2.2.4 2.7 0 5.1-1.6 6.1-4.1zm13.2-35.2l5.2 13.7H46l5.2-13.7zm142.9 219.1c-3.3-1.2-7 .4-8.2 3.7l-3.2 8.6h-19.9l-3.2-8.6c-1.2-3.3-4.9-5-8.2-3.7-3.3 1.2-5 4.9-3.7 8.2l19.2 51.2v.1c.1.3.2.5.4.8v.1c.1.2.3.5.5.7 0 .1.1.1.1.2l.6.6.1.1c.2.2.4.3.6.5l.1.1c.2.2.5.3.7.4h.1c.1.1.3.1.4.2.1 0 .2.1.3.1.1 0 .1 0 .2.1.3.1.5.1.8.2h.1c.3 0 .6.1.9.1s.6 0 .9-.1h.1c.3 0 .5-.1.8-.2.1 0 .1 0 .2-.1.1 0 .2-.1.3-.1.2-.1.3-.1.5-.2h.1c.3-.1.5-.3.7-.4l.1-.1c.2-.2.4-.3.6-.5l.1-.1.6-.6c0-.1.1-.1.1-.2.2-.2.3-.5.5-.7v-.1c.1-.2.2-.5.4-.8v-.1l19.2-51.2c1.1-3.3-.6-7-3.9-8.2zm-21.4 38.9l-5.2-13.7h10.3l-5.1 13.7zm-32 5.4H44.8V159.9c0-3.5-2.9-6.4-6.4-6.4-3.5 0-6.4 2.9-6.4 6.4v211.3c0 3.5 2.9 6.4 6.4 6.4h102.3c3.5 0 6.4-2.9 6.4-6.4 0-3.5-2.9-6.4-6.4-6.4zM83.1 95.9H179v204.9c0 3.5 2.9 6.4 6.4 6.4 3.5 0 6.4-2.9 6.4-6.4V89.5c0-3.5-2.9-6.4-6.4-6.4H83.1c-3.5 0-6.4 2.9-6.4 6.4s2.9 6.4 6.4 6.4zm0 0"/></g></svg>