<svg xmlns="http://www.w3.org/2000/svg" width="70" height="70" viewBox="0 0 70 70"><defs><style>.cls-1{fill-rule:evenodd}</style></defs><path id="_" data-name="£" class="cls-1" d="M458.1 900.024a2.115 2.115 0 0 0-.512.128 5.977 5.977 0 0 1-2.016.352 6.248 6.248 0 0 1-1.424-.16 14.8 14.8 0 0 1-1.584-.48q-1.152-.352-1.808-.512a6.278 6.278 0 0 0-1.488-.16l-.8.032a8.362 8.362 0 0 0 1.344-4.576 7.589 7.589 0 0 0-.128-1.472h5.344a.749.749 0 0 0 .528-.192.663.663 0 0 0 .208-.512.712.712 0 0 0-.736-.736h-5.664l-.32-1.056q-.415-1.248-.608-2.112a8.091 8.091 0 0 1-.192-1.76 3.4 3.4 0 0 1 1.136-2.592 5.615 5.615 0 0 1 3.856-1.056 11.451 11.451 0 0 1 3.488.608 2.071 2.071 0 0 0 .608.128 1.312 1.312 0 0 0 1.344-1.344 1.323 1.323 0 0 0-.96-1.28 11.923 11.923 0 0 0-4.608-.928 8.582 8.582 0 0 0-5.648 1.76 5.931 5.931 0 0 0-2.128 4.832 9.413 9.413 0 0 0 .208 2.032 20.444 20.444 0 0 0 .624 2.16l.192.608h-3.072a.663.663 0 0 0-.512.208.749.749 0 0 0-.192.528.661.661 0 0 0 .7.7h3.456a7.1 7.1 0 0 1 .192 1.664 7.405 7.405 0 0 1-.864 3.456 10.5 10.5 0 0 1-2.08 2.816 1.246 1.246 0 0 0-.448.992 1.05 1.05 0 0 0 .352.784 1.165 1.165 0 0 0 .832.336 1.232 1.232 0 0 0 .736-.256 6.27 6.27 0 0 1 5.072-.9 16.505 16.505 0 0 1 1.584.544q.96.352 1.616.528a6.052 6.052 0 0 0 1.552.176 6.915 6.915 0 0 0 3.392-.864 1.275 1.275 0 0 0 .736-1.152 1.211 1.211 0 0 0-.384-.912 1.293 1.293 0 0 0-.928-.368z" transform="translate(-417 -858)"/><path class="cls-1" d="M67.6 22.333A34.551 34.551 0 1 0 70 35a34.913 34.913 0 0 0-2.4-12.667zm-4.106 2.369l-6.12 3.533a23.406 23.406 0 0 0-6.073-9.965l6.178-3.566a30.306 30.306 0 0 1 6.015 9.996zm-9.78 10.3A18.715 18.715 0 1 1 35 16.286 18.734 18.734 0 0 1 53.714 35zM35 4.667a30.386 30.386 0 0 1 5.833.575v7.144a22.563 22.563 0 0 0-11.666 0V5.242A30.378 30.378 0 0 1 35 4.667zM12.523 14.7l6.178 3.567a23.388 23.388 0 0 0-6.075 9.964l-6.121-3.533a30.364 30.364 0 0 1 6.018-9.998zM6.152 44.333l6.212-3.586a23.322 23.322 0 0 0 5.614 10.23l-6.152 3.551a30.321 30.321 0 0 1-5.674-10.192zm28.848 21a30.378 30.378 0 0 1-5.833-.575v-7.144a22.563 22.563 0 0 0 11.666 0v7.144a30.386 30.386 0 0 1-5.833.575zm23.171-10.8l-6.15-3.551a23.308 23.308 0 0 0 5.615-10.23l6.211 3.587a30.28 30.28 0 0 1-5.676 10.192z"/></svg>