<svg id="Layer_1" xmlns="http://www.w3.org/2000/svg" xmlns:xlink="http://www.w3.org/1999/xlink" viewBox="0 0 344.9 344"><style>.st0{clip-path:url(#SVGID_2_)}</style><g fill="#1e3365"><defs><path id="SVGID_1_" d="M0 .1h344.9V344H0z"/></defs><clipPath id="SVGID_2_"><use xlink:href="#SVGID_1_" overflow="visible"/></clipPath><path class="st0" d="M245 88.4l86.1-86.1c2.8-2.8 7.4-2.8 10.2 0 2.8 2.8 2.8 7.4 0 10.2l-86.1 86.1c-1.4 1.4-3.3 2.1-5.1 2.1-1.8 0-3.7-.7-5.1-2.1-2.9-2.9-2.9-7.4 0-10.2zm83.9-27.9l-45.7 45.7c-2.8 2.8-2.8 7.4 0 10.2 1.4 1.4 3.2 2.1 5.1 2.1 1.8 0 3.7-.7 5.1-2.1l45.7-45.7c2.8-2.8 2.8-7.4 0-10.2-2.8-2.8-7.4-2.8-10.2 0zM231 66.2c1.8 0 3.7-.7 5.1-2.1l45.7-45.7c2.8-2.8 2.8-7.4 0-10.2-2.8-2.8-7.4-2.8-10.2 0l-45.7 45.7c-2.8 2.8-2.8 7.4 0 10.2 1.5 1.4 3.3 2.1 5.1 2.1zm113.2 167.6c0 30.1-12.1 57.4-31.7 77.3-.2.2-1 1.1-1.2 1.2-19.9 19.6-47.2 31.7-77.3 31.7-30.1 0-57.3-12.1-77.2-31.7-.2-.2-1.1-1-1.3-1.3-19.5-19.9-31.6-47.1-31.7-77.1v-.3c0-30 12.1-57.2 31.7-77.1.2-.2.4-.5.6-.7.2-.2.4-.4.7-.6 19.9-19.6 47.2-31.7 77.2-31.7 30.1 0 57.4 12.1 77.3 31.7.2.2 1.1 1 1.3 1.3 19.5 19.9 31.6 47.2 31.6 77.3zm-37.5-62.4l-15.5 15.4c9.1 11 15.1 24.8 16.5 39.8h21.9c-1.6-21-10-40.2-22.9-55.2zm-65.5-11.3c15 1.5 28.7 7.4 39.8 16.5l15.5-15.4c-15.1-13-34.2-21.4-55.2-22.9v21.8zm-69.6 1.1l15.4 15.5c11-9.1 24.8-15.1 39.8-16.5v-21.9c-21 1.5-40.1 9.9-55.2 22.9zm-33.1 65.4h21.9c1.5-15 7.4-28.7 16.5-39.8l-15.5-15.5c-12.9 15.1-21.3 34.3-22.9 55.3zm22.9 69.6l15.5-15.5c-9.1-11-15.1-24.8-16.5-39.8h-21.9c1.6 21.1 10 40.2 22.9 55.3zm65.4 11.3c-15-1.5-28.7-7.4-39.8-16.5l-15.4 15.4c15.1 13 34.2 21.4 55.2 22.9v-21.8zm7.7-14.1c32.5-.2 59-26.6 59.2-59.2v-.9c-.2-32.5-26.7-59-59.2-59.2h-.8c-32.6.2-59 26.7-59.2 59.2v.8c.2 32.6 26.6 59 59.2 59.2.2.1.5.1.8.1zm62 13L281 291c-11 9.1-24.8 15.1-39.8 16.5v21.9c21.1-1.6 40.2-10 55.3-23zm33.1-65.4h-21.9c-1.5 15-7.4 28.7-16.5 39.8l15.5 15.4c12.9-15.1 21.3-34.2 22.9-55.2zm-208-64.6c.2 4-2.8 7.4-6.7 7.6-1.6.1-3.1.1-4.6.1-17.8 0-34.2-6.3-47-16.9l-15.4 15.4c15.2 13.1 34.6 21.6 55.9 23 4 .3 7 3.7 6.7 7.7-.3 3.8-3.4 6.7-7.2 6.7h-.5c-26.6-1.8-51.4-13.1-70.3-31.9-.1-.1-1.9-1.9-2.6-2.7C10.6 165.1 0 138.4 0 110.3v-.3c0-30 12.1-57.2 31.7-77 .2-.2 1-1.1 1.3-1.3C52.9 12.1 80.1 0 110.2 0c28.1 0 54.9 10.6 75.4 29.8.8.8 2.6 2.5 2.7 2.6 18.8 18.9 30.1 43.7 31.9 70.3.3 4-2.7 7.4-6.7 7.7-4 .3-7.4-2.7-7.7-6.7-1.4-21.3-9.9-40.7-23-55.9l-15.4 15.4c10.5 12.8 16.9 29.2 16.9 47 0 1.5 0 3.1-.1 4.6-.2 4-3.7 7-7.6 6.7-4-.2-7-3.7-6.7-7.6.1-1.3.1-2.5.1-3.7 0-32.7-26.5-59.4-59.2-59.6h-.8c-32.6.2-59 26.7-59.2 59.2v.8c.2 32.7 26.9 59.2 59.6 59.2 1.2 0 2.4 0 3.7-.1 3.8-.3 7.2 2.8 7.5 6.7zm-4.2-139.9c15 1.5 28.7 7.4 39.8 16.5l15.4-15.4c-15.1-13-34.3-21.4-55.2-22.9v21.8zm-69.6 1.1L63.2 53C74.3 43.9 88 38 103 36.5V14.7c-21 1.5-40.2 9.9-55.2 22.9zM14.7 103h21.9C38 88 43.9 74.3 53 63.2L37.6 47.8c-13 15-21.4 34.2-22.9 55.2zM53 157.2c-9.1-11-15.1-24.8-16.5-39.8H14.7c1.6 20.9 9.9 40.1 22.9 55.2L53 157.2zm101.1-47c0 10.9-4 21.3-11.3 29.3-8.3 9.2-20.2 14.5-32.6 14.5-24.2 0-43.9-19.7-43.9-43.9S86 66.2 110.2 66.2c24.2.1 43.9 19.8 43.9 44zm-14.4 0c0-16.2-13.2-29.5-29.5-29.5-16.2 0-29.5 13.3-29.5 29.5s13.2 29.5 29.5 29.5c8.3 0 16.3-3.6 21.9-9.8 4.9-5.4 7.6-12.4 7.6-19.7zm138.2 123.6c0 10.9-4 21.3-11.3 29.3-8.3 9.2-20.2 14.5-32.6 14.5-24.2 0-43.9-19.7-43.9-43.9s19.7-43.9 43.9-43.9c24.2.1 43.9 19.8 43.9 44zm-14.4 0c0-16.2-13.2-29.5-29.5-29.5-16.2 0-29.5 13.2-29.5 29.5s13.2 29.5 29.5 29.5c8.3 0 16.3-3.6 21.9-9.8 4.9-5.4 7.6-12.4 7.6-19.7zm0 0"/></g></svg>