<svg id="Layer_1" xmlns="http://www.w3.org/2000/svg" viewBox="0 0 171.8 171.8"><style>.st0,.st1{stroke-miterlimit:10}.st0{stroke-width:5;fill:#7f8ba7;stroke:#7f8ba7}.st1{fill:#1f3465;stroke:#1f3465}</style><path class="st0" d="M37.5 137L134 39.5"/><path class="st1" d="M85.9.5C38.8.5.5 38.8.5 85.9c0 47.1 38.3 85.4 85.4 85.4 47.1 0 85.4-38.3 85.4-85.4C171.3 38.8 133 .5 85.9.5zm0 141.7c-31.1 0-56.3-25.2-56.3-56.3 0-31.1 25.2-56.3 56.3-56.3 31.1 0 56.3 25.2 56.3 56.3 0 31.1-25.2 56.3-56.3 56.3zm0 0"/><path class="st1" d="M84.7 102.1c1.1-2.2 1.7-4.5 1.7-6.9v-.6H100V80.3H85.7l-.3-6.7c0-2.4.4-4.4 1.1-5.6.6-1 1.4-1.5 2.5-1.5 1.2 0 2 .4 2.8 1.2.8.9 1.1 2.3 1.1 4.4v1.8h17.6l.5-1.7v-.3c.1-6-1.8-10.9-5.7-14.6-3.9-3.6-9.3-5.5-16.3-5.5-6.5 0-11.8 1.9-15.8 5.8s-6 9.3-6 16l.2 6.6h-6.7v14.4h7.2l.1 1.5c0 2.2-.3 4.3-1 6.3-.3 1.1-.9 2.6-1.8 2.6h-2.1v15.2h47.2V105H82.8c.7-.7 1.4-1.8 1.9-2.9zm0 0"/></svg>