<svg width="381" height="379" viewBox="0 0 381 379" xmlns="http://www.w3.org/2000/svg"><title>Page 1</title><g fill="#808e9a" fill-rule="evenodd"><path d="M333.289 41.891c-7.984 0-14.457-6.465-14.457-14.469 0-3.48 1.379-6.566 3.441-9.051 2.661-3.234 6.516-5.406 11.016-5.406s8.363 2.172 11.023 5.406c2.051 2.485 3.446 5.567 3.446 9.051 0 8.004-6.492 14.469-14.469 14.469m-38.883 0c-7.992 0-14.48-6.465-14.48-14.469 0-3.48 1.406-6.566 3.469-9.051 2.648-3.234 6.5-5.406 11.011-5.406 4.5 0 8.34 2.172 11.012 5.406 2.051 2.485 3.445 5.567 3.445 9.051 0 8.004-6.488 14.469-14.457 14.469m-38.894 0c-7.992 0-14.481-6.465-14.481-14.469 0-3.48 1.391-6.566 3.457-9.051 2.645-3.234 6.512-5.406 11.024-5.406 4.488 0 8.351 2.172 11.015 5.406 2.051 2.485 3.442 5.567 3.442 9.051 0 8.004-6.477 14.469-14.457 14.469M353.922 0H92.07C77.488 0 65.633 11.86 65.633 26.438v28.664H354.43v233.187a.5.5 0 0 1-.508.497h-44.426v25.945h44.426c14.566 0 26.437-11.86 26.437-26.442V26.438C380.359 11.86 368.488 0 353.922 0"/><path d="M111.535 369.036c-4.426 0-8.23-2.098-10.89-5.219-2.137-2.512-3.59-5.668-3.59-9.262 0-7.98 6.488-14.469 14.48-14.469 7.969 0 14.457 6.489 14.457 14.469 0 3.594-1.441 6.75-3.582 9.262-2.672 3.121-6.476 5.219-10.875 5.219m43.492-8.762v-30.828H25.93V117.164c0-5.617 4.586-10.203 10.203-10.203h150.765c5.618 0 10.215 4.586 10.215 10.203v47.372h25.918v-47.372c0-19.937-16.207-36.132-36.133-36.132H36.133C16.195 81.032 0 97.227 0 117.164v225.309c0 19.938 16.195 36.137 36.133 36.137h124.254c-2.723-4.367-5.36-10.153-5.36-18.336"/><path d="M222.996 359.789c0-5.109 4.137-9.25 9.246-9.25 5.133 0 9.285 4.141 9.285 9.25 0 5.122-4.152 9.274-9.285 9.274-5.109 0-9.246-4.152-9.246-9.274zm-32.305-17.007h83.145V200.188h-83.145v142.594zm84.075-162.047h-85.008c-10.203 0-18.524 8.301-18.524 18.519v161.02c0 10.203 8.321 18.508 18.524 18.508h85.008c10.207 0 18.523-8.305 18.523-18.508v-161.02c0-10.218-8.316-18.519-18.523-18.519z"/></g></svg>