<svg id="Layer_1" xmlns="http://www.w3.org/2000/svg" xmlns:xlink="http://www.w3.org/1999/xlink" viewBox="0 0 388.8 292.9"><style>.st0{clip-path:url(#SVGID_2_)}</style><g fill="#1e3365"><defs><path id="SVGID_1_" d="M0 .1h388.8v292.8H0z"/></defs><clipPath id="SVGID_2_"><use xlink:href="#SVGID_1_" overflow="visible"/></clipPath><path class="st0" d="M352.7 93.2H151.1c-19.5 0-35.5 16-35.5 35.5v127.7c0 19.5 16 35.5 35.5 35.5h201.6c19.5 0 35.5-16 35.5-35.5V128.7c.1-19.6-16-35.5-35.5-35.5zm16.4 163.7c0 7-5.8 12.9-12.9 12.9H150.7c-7 0-12.9-5.8-12.9-12.9v-89.8h231.3v89.8zm0-123.7H137.8v-4.9c0-7 5.8-12.9 12.9-12.9h205.5c7 0 12.9 5.8 12.9 12.9v4.9zm0 0"/><path class="st0" d="M148.5 71.3h125l-25.4-51.5C239.4 2.2 218-5 200.4 3.7L19.8 93C2.2 101.7-5 123.1 3.7 140.7l56.6 114.5c7.6 15.4 25.1 23 41.2 18.6-4.8-8.1-7.5-17.4-7.5-27.4V125.9c-.1-30 24.5-54.6 54.5-54.6zm0 0"/><path d="M174.2 255.9c7 0 13.3-3.1 17.4-8.1 4.2 5 10.5 8.1 17.4 8.1 12.7 0 23-10.3 23-23s-10.3-23-23-23c-7 0-13.3 3.1-17.4 8.1-4.2-5-10.5-8.1-17.4-8.1-12.7 0-23 10.3-23 23-.1 12.7 10.3 23 23 23zm0 0"/></g></svg>