<svg width="666" height="708" viewBox="0 0 666 708" xmlns="http://www.w3.org/2000/svg" xmlns:xlink="http://www.w3.org/1999/xlink"><title>Page 1</title><defs><path id="a" d="M.12 529.448V.35h318.439v529.097H.12z"/></defs><g fill="none" fill-rule="evenodd"><g transform="translate(0 178)"><mask id="b" fill="#fff"><use xlink:href="#a"/></mask><path d="M150.719 199.519c17.281-1.121 32.722 21.282 34.562 50 1.84 28.719-10.722 52.879-28 53.922-17.281 1.118-32.722-21.281-34.562-50-1.84-28.722 10.722-52.882 28-53.922M0 20.398v351.84C0 388 9.281 402.32 23.68 408.801L290.398 527.68c13.204 5.921 28.161-3.758 28.161-18.239v-364.8c0-7.922-4.637-15.04-11.84-18.243L28.16 2.078C14.879-3.762 0 5.922 0 20.398" fill="#1e3365" mask="url(#b)"/></g><path d="M598.16 337.84c-1.84 28.719-17.281 51.039-34.558 50-17.282-1.121-29.762-25.281-28-53.918 1.839-28.723 17.277-51.043 34.558-50 17.28 1.039 29.84 25.199 28 53.918M479.922 540.559c-1.844 28.722-17.281 51.042-34.563 50-17.281-1.118-29.757-25.278-28-53.918 1.84-28.719 17.282-51.04 34.563-50 17.359 1.121 29.84 25.281 28 53.918m185.117 9.601V198.32c0-14.48-14.961-24.16-28.16-18.242l-278.481 124.32c-7.2 3.203-11.84 10.403-11.84 18.243v364.8c0 14.481 14.962 24.16 28.16 18.239l266.723-118.961c14.32-6.399 23.598-20.719 23.598-36.559M179.922 104.238c28.719-.16 52.078 13.84 52.156 31.203.082 17.36-23.117 31.598-51.84 31.68-28.718.078-52.078-13.84-52.16-31.199-.078-17.363 23.121-31.602 51.844-31.684m152.476 0c28.723-.16 52.082 13.84 52.161 31.203.082 17.36-23.118 31.598-51.84 31.68-28.719.16-52.078-13.84-52.16-31.199-.079-17.363 23.121-31.602 51.839-31.684m152.481 0c28.723-.16 52.082 13.84 52.16 31.203.082 17.36-23.117 31.598-51.84 31.68-28.719.16-52.078-13.84-52.16-31.199-.078-17.363 23.121-31.602 51.84-31.684M42.078 155.68l282.32 125.921a19.998 19.998 0 0 0 16.321 0l282.32-125.921c16-7.121 15.762-29.918-.398-36.719L348.078 3.121A40.074 40.074 0 0 0 332.559 0a40.104 40.104 0 0 0-15.52 3.121L42.398 118.961c-16.078 6.801-16.32 29.598-.32 36.719" fill="#1e3365"/></g></svg>