<svg width="874" height="551" viewBox="0 0 874 551" xmlns="http://www.w3.org/2000/svg"><title>Page 1</title><g fill="none" fill-rule="evenodd"><path d="M381.515 402.88H5.68c-4.672 0-7.338-5.332-4.535-9.07l73.611-98.15a5.661 5.661 0 0 0 0-6.803l-73.61-98.15c-2.804-3.737-.138-9.07 4.534-9.07h375.836V402.88zm110.651 0h375.838c4.672 0 7.338-5.332 4.535-9.07l-73.611-98.15a5.667 5.667 0 0 1 0-6.803l73.61-98.15c2.804-3.737.138-9.07-4.534-9.07H492.166V402.88z" fill="#78909C"/><path d="M438.878 550.036c-8.364 0-16.075-12.648-24.248-13.4-8.315-.763-18.207 10.253-26.286 8.747-8.195-1.529-13.447-15.381-21.363-17.637-8.005-2.279-19.767 6.716-27.452 3.73-7.746-3.012-10.346-17.596-17.726-21.287-7.426-3.712-20.65 2.96-27.666-1.401-7.046-4.378-6.92-19.192-13.514-24.183-6.608-5.002-20.83-.862-26.941-6.438-6.12-5.584-3.297-20.125-8.877-26.242-5.579-6.113-20.317-4.633-25.32-11.241-4.99-6.591.436-20.373-3.94-27.419-4.36-7.016-19.123-8.256-22.834-15.683-3.69-7.38 4.175-19.929 1.163-27.675-2.986-7.682-17.267-11.626-19.547-19.629-2.256-7.915 7.798-18.789 6.27-26.981-1.508-8.079-14.813-14.595-15.576-22.909-.751-8.17 11.13-17.007 11.13-25.37s-11.882-17.202-11.13-25.373c.764-8.313 14.07-14.829 15.577-22.907 1.526-8.195-8.525-19.069-6.269-26.985 2.281-8.004 16.564-11.946 19.547-19.629 3.012-7.747-4.853-20.296-1.163-27.677 3.713-7.426 18.477-8.666 22.838-15.683 4.377-7.045-1.05-20.827 3.94-27.419 5.002-6.608 19.742-5.126 25.321-11.24 5.58-6.118 2.757-20.659 8.875-26.241 6.113-5.577 20.337-1.436 26.943-6.437 6.594-4.991 6.47-19.805 13.514-24.183 7.017-4.359 20.238 2.313 27.666-1.399 7.382-3.691 9.98-18.275 17.726-21.286 7.685-2.986 19.445 6.009 27.45 3.73 7.916-2.255 13.17-16.108 21.362-17.635 8.08-1.507 17.971 9.51 26.284 8.747C422.805 12.65 430.515 0 438.878 0s16.077 12.65 24.249 13.401c8.313.764 18.207-10.254 26.284-8.746 8.195 1.527 13.447 15.38 21.365 17.635 8.002 2.281 19.767-6.715 27.45-3.729 7.749 3.01 10.346 17.596 17.726 21.287 7.428 3.712 20.652-2.959 27.667 1.401 7.046 4.378 6.921 19.191 13.515 24.183 6.607 5.001 20.828.861 26.942 6.439 6.117 5.581 3.294 20.123 8.876 26.241 5.577 6.114 20.317 4.632 25.32 11.239 4.99 6.594-.439 20.375 3.94 27.42 4.36 7.017 19.124 8.256 22.835 15.683 3.69 7.382-4.177 19.93-1.167 27.677 2.986 7.681 17.268 11.624 19.548 19.627 2.255 7.916-7.795 18.79-6.269 26.982 1.506 8.079 14.812 14.596 15.577 22.907.75 8.171-11.13 17.008-11.13 25.371 0 8.364 11.88 17.202 11.13 25.373-.765 8.312-14.07 14.83-15.577 22.908-1.526 8.194 8.523 19.068 6.269 26.985-2.282 8.004-16.563 11.946-19.548 19.628-3.014 7.748 4.854 20.297 1.163 27.677-3.713 7.427-18.475 8.667-22.835 15.683-4.376 7.047 1.05 20.828-3.942 27.42-5.002 6.608-19.741 5.128-25.32 11.24-5.582 6.118-2.759 20.659-8.877 26.24-6.114 5.578-20.335 1.437-26.942 6.439-6.592 4.99-6.47 19.805-13.516 24.181-7.015 4.36-20.239-2.311-27.664 1.401-7.38 3.689-9.98 18.275-17.729 21.285-7.681 2.986-19.443-6.009-27.446-3.73-7.916 2.254-13.168 16.106-21.364 17.635-8.079 1.506-17.97-9.51-26.286-8.747-8.168.752-15.88 13.4-24.244 13.4" fill="#F05451"/><path d="M438.878 513.162c-131.313 0-238.144-106.832-238.144-238.145 0-131.313 106.83-238.143 238.144-238.143 131.311 0 238.145 106.83 238.145 238.143S570.188 513.163 438.878 513.163" fill="#B72025"/><path d="M646.293 275.018c0 114.553-92.861 207.415-207.416 207.415-114.553 0-207.415-92.862-207.415-207.415 0-114.552 92.862-207.415 207.415-207.415 114.555 0 207.416 92.863 207.416 207.415" fill="#E63A34"/><path d="M438.878 87.121c111.276 0 202.063 87.633 207.169 197.646.15-3.232.245-6.478.245-9.749 0-114.552-92.86-207.415-207.416-207.415-114.552 0-207.413 92.863-207.413 207.415 0 3.278.096 6.532.245 9.771 5.095-110.024 95.888-197.668 207.17-197.668" fill="#D32E2E"/><path d="M436.574 147.546h-61.435a5.773 5.773 0 0 0-5.758 6.182l12.85 180.606a5.771 5.771 0 0 0 4.736 5.27l48.584 8.748a5.759 5.759 0 0 0 2.045 0l48.583-8.748a5.77 5.77 0 0 0 4.737-5.27l12.849-180.606a5.773 5.773 0 0 0-5.757-6.182h-61.434z" fill="#D32E2E"/><path d="M436.574 323.6h-3.197a5.773 5.773 0 0 0-5.77 5.94l2.07 71.93a5.772 5.772 0 0 0 5.772 5.605h2.248a5.774 5.774 0 0 0 5.772-5.606l2.072-71.93a5.774 5.774 0 0 0-5.772-5.938h-3.195z" fill="#D32E2E"/><path d="M435.304 384.283l-57.326 12.925a5.771 5.771 0 0 0-4.5 5.631v1.13a5.772 5.772 0 0 0 5.771 5.772h114.647a5.771 5.771 0 0 0 5.771-5.773v-1.129a5.769 5.769 0 0 0-4.502-5.63l-57.322-12.926a5.785 5.785 0 0 0-2.539 0m48.282-70.469c-2.528-2.27-2.565-6.24-.052-8.524 16.913-15.362 29.677-32.702 37.977-51.62 16.798-38.269 6.976-63.322 4.348-66.67-2.028-2.443-4.125-3.084-4.585-3.2a5.25 5.25 0 0 0-1.205.058c-2.378.396-5.215 2.103-8.672 5.22-4.377 3.947-8.404 8.867-11.8 14.401-1.478 2.405-4.457 3.418-7.075 2.363l-.401-.162c-3.306-1.33-4.685-5.347-2.781-8.359 3.797-6.006 8.21-11.29 13.174-15.763 3.375-3.043 8.626-7.215 15.247-8.315a19.192 19.192 0 0 1 5.389-.128c.825.108 7.41 1.14 12.736 7.553 4.012 4.837 16.12 33.713-2.822 76.87-9.08 20.69-23.101 39.59-41.718 56.242-2.216 1.981-5.551 2.02-7.76.034m-94.026 0c2.527-2.27 2.565-6.24.051-8.524-16.914-15.362-29.674-32.702-37.977-51.62-16.797-38.269-6.976-63.322-4.347-66.67 2.027-2.443 4.125-3.084 4.585-3.2.354-.028.78-.01 1.204.058 2.38.396 5.217 2.103 8.672 5.22 4.378 3.947 8.404 8.867 11.8 14.401 1.48 2.405 4.457 3.418 7.077 2.363l.402-.162c3.305-1.33 4.683-5.347 2.78-8.359-3.798-6.006-8.212-11.29-13.175-15.763-3.373-3.043-8.627-7.215-15.248-8.315a19.192 19.192 0 0 0-5.388-.128c-.825.108-7.41 1.14-12.737 7.553-4.012 4.837-16.119 33.713 2.823 76.87 9.08 20.69 23.103 39.59 41.718 56.242 2.215 1.981 5.551 2.02 7.76.034" fill="#D32E2E"/><path d="M438.877 143.92h-61.434a5.773 5.773 0 0 0-5.757 6.184l12.849 180.605a5.78 5.78 0 0 0 4.737 5.272l48.584 8.746a5.753 5.753 0 0 0 2.044 0l48.584-8.746a5.775 5.775 0 0 0 4.735-5.272l12.85-180.605a5.774 5.774 0 0 0-5.756-6.183h-61.436z" fill="#FFF"/><path d="M438.877 319.976h-3.195a5.774 5.774 0 0 0-5.772 5.938l2.072 71.93a5.772 5.772 0 0 0 5.772 5.606h2.248a5.772 5.772 0 0 0 5.77-5.606l2.072-71.93a5.772 5.772 0 0 0-5.77-5.938h-3.197z" fill="#FFF"/><path d="M437.607 380.657l-57.322 12.926a5.776 5.776 0 0 0-4.504 5.633v1.128a5.773 5.773 0 0 0 5.773 5.772h114.647a5.772 5.772 0 0 0 5.771-5.772v-1.128c0-2.7-1.869-5.038-4.5-5.633l-57.326-12.926a5.816 5.816 0 0 0-2.539 0m48.283-70.467c-2.527-2.272-2.564-6.24-.05-8.523 16.913-15.365 29.673-32.704 37.976-51.622 16.797-38.268 6.976-63.323 4.348-66.67-2.028-2.442-4.127-3.084-4.586-3.2a5.21 5.21 0 0 0-1.206.06c-2.377.395-5.214 2.1-8.669 5.217-4.38 3.948-8.405 8.867-11.803 14.401-1.477 2.406-4.455 3.42-7.074 2.364l-.403-.16c-3.306-1.332-4.683-5.349-2.779-8.362 3.8-6.005 8.211-11.288 13.174-15.76 3.375-3.045 8.627-7.216 15.248-8.317a19.187 19.187 0 0 1 5.387-.128c.826.108 7.412 1.14 12.738 7.554 4.012 4.836 16.12 33.712-2.82 76.87-9.082 20.69-23.106 39.588-41.719 56.241-2.217 1.98-5.553 2.02-7.762.034m-94.025.001c2.527-2.272 2.564-6.24.05-8.523-16.911-15.365-29.675-32.704-37.976-51.622-16.797-38.268-6.976-63.323-4.347-66.67 2.027-2.442 4.125-3.084 4.584-3.2a5.195 5.195 0 0 1 1.205.06c2.379.395 5.216 2.1 8.673 5.217 4.377 3.948 8.403 8.867 11.8 14.401 1.478 2.406 4.456 3.42 7.075 2.364l.4-.16c3.307-1.332 4.686-5.349 2.782-8.362-3.797-6.005-8.211-11.288-13.174-15.76-3.375-3.045-8.627-7.216-15.248-8.317a19.186 19.186 0 0 0-5.387-.128c-.826.108-7.412 1.14-12.736 7.554-4.012 4.836-16.121 33.712 2.82 76.87 9.083 20.69 23.102 39.588 41.719 56.241 2.215 1.98 5.55 2.02 7.76.034" fill="#FFF"/><path d="M459.293 295.031c0 7.142-1.23 12.454-3.69 15.935-2.462 3.48-6.273 5.22-11.433 5.22-5.102 0-8.9-1.74-11.39-5.22-2.49-3.48-3.735-8.793-3.735-15.935v-83.544h-2.7c-6.603 0-11.613-1.168-15.035-3.51-3.42-2.34-5.13-5.792-5.13-10.353 0-4.62 1.755-8.07 5.265-10.352 3.512-2.28 8.836-3.422 15.98-3.422h14.944c6.063 0 10.399 1.621 13.01 4.863 2.609 3.241 3.914 8.672 3.914 16.293v90.025z" fill="#E63A34"/><path d="M455.378 188.713c-2.61-3.241-6.946-4.862-13.01-4.862h-14.942c-7.145 0-12.47 1.14-15.981 3.422-3.51 2.28-5.265 5.73-5.265 10.352 0 .306.072.568.085.864a11.932 11.932 0 0 1 2.351-2c3.512-2.28 8.837-3.42 15.982-3.42h14.942c6.063 0 10.4 1.62 13.008 4.862 2.611 3.24 3.916 8.673 3.916 16.295v90.024c0 2.104-.14 4-.353 5.786 2.09-3.472 3.182-8.425 3.182-15.005v-90.025c0-7.62-1.305-13.052-3.915-16.293" fill="#D32E2E"/></g></svg>