<svg width="393" height="344" viewBox="0 0 393 344" xmlns="http://www.w3.org/2000/svg"><title>Page 1</title><path d="M207.805 80.064l-8.403 8.32-8.32-8.398-8-8.082 8.402-8.32 8 8.082 19.2-19.121 8.32 8.398-19.199 19.12zm-2.8-52.56c-23.68 0-42.962 19.279-42.962 42.958 0 23.684 19.281 42.96 42.961 42.96s42.961-19.276 42.961-42.96c0-23.68-19.28-42.957-42.96-42.957zm96.48 74.642c-1.602-.402-3.2-.641-4.883-.641-10.957 0-19.84 8.879-19.84 19.84 0 .8.082 1.68.16 2.48h-145.36c.243-1.202.321-2.402.321-3.68 0-10.96-8.879-19.84-19.84-19.84-1.199 0-2.32.079-3.52.318V40.306c1.122.239 2.321.317 3.52.317 10.961 0 19.84-8.88 19.84-19.84 0-1.278-.16-2.477-.32-3.68h145.761a19.35 19.35 0 0 0-.64 4.883c0 10.957 8.878 19.84 19.84 19.84 1.68 0 3.36-.242 4.878-.641v60.96h.082zm16.718-82.16c0-10.801-8.8-19.602-19.6-19.602h-187.2c-10.8 0-19.598 8.8-19.598 19.602v100.957c0 10.8 8.797 19.602 19.597 19.602h187.2c10.8 0 19.601-8.801 19.601-19.602V19.986zm-163.84 50.476c0 6.563-5.359 11.922-11.918 11.922-6.562 0-11.922-5.36-11.922-11.922 0-6.558 5.36-11.917 11.922-11.917 6.637 0 11.918 5.359 11.918 11.917zm125.04 0c0 6.563-5.36 11.922-11.919 11.922-6.562 0-11.922-5.36-11.922-11.922 0-6.558 5.36-11.917 11.922-11.917 6.641 0 11.918 5.359 11.918 11.917zM91.964 192.622a8.398 8.398 0 0 1 8.398-8.398h209.36a8.402 8.402 0 1 1 0 16.8H100.285c-4.562 0-8.32-3.761-8.32-8.401zm217.758-38.718a8.402 8.402 0 0 1 0 16.801H100.285a8.402 8.402 0 1 1 0-16.801h209.438zm-31.039 70.16c7.68-4.078 24.8-9.602 32.558-12.641 6.16-2.48 12.242-2.32 17.922 1.442-9.039 4-26.402 10.078-34.64 14.64l-5.602 3.04c-.559.32-1.039.64-1.52 1.039-2.558-3.04-5.437-5.52-8.718-7.52zm16.961 32.64c.16-2 .16-4.081-.083-6.16-.238-2.64-.878-5.121-1.679-7.52.082-.16.16-.32.16-.48 11.68-6.398 34.56-17.441 47.04-22.32 6.241-2.48 12.401-2.32 18.081 1.52-4.48 1.6-8.64 3.6-12.562 5.519-13.118 6.563-36.239 19.12-47.52 27.043-1.117.797-2.32 1.598-3.437 2.399zm-256.48 69.602c-6.243 0-11.36-4.883-11.36-10.961 0-6.082 5.117-10.961 11.36-10.961 6.237 0 11.358 4.879 11.358 10.96 0 6.079-5.12 10.962-11.359 10.962zm338.878-95.121c-7.52-.562-23.039 7.84-27.28 10-15.118 7.598-36.16 19.52-50 29.039-.958.64-2.24 1.52-3.2 2.16-6.239 4-12.8 6.64-20.079 8.239-40.16 8.562-98.64 9.44-98.64 9.44l-3.442.16c-2.558.16-4.879-1.678-5.199-4.16-.398-2.718 1.602-5.28 4.481-5.518l86.961-8.24c9.597-1.042 17.2-10 16.16-20.081-1.043-10.078-10.32-17.441-19.922-16.398l-77.36-.961c-5.28-.082-13.679-1.36-18.718-2.88-49.84-14.562-78-.96-92.96 5.438a18.137 18.137 0 0 0-16.72-8.64l-33.363 2.242c-11.117.719-19.438 10-18.719 20.719l5.36 74.082c.8 10.719 10.402 18.797 21.52 18l33.362-2.242c7.04-.481 12.797-4.801 15.277-10.72l146.563 6.32c16.32 1.759 31.598-.241 46-7.761l4.16-2.16 110.797-64.801c5.441-3.2 9.281-8.718 9.52-14.796.242-7.442-4-15.68-14.559-16.481z" fill="#808e9a" fill-rule="evenodd"/></svg>