<svg id="Layer_1" xmlns="http://www.w3.org/2000/svg" xmlns:xlink="http://www.w3.org/1999/xlink" viewBox="0 0 34.8 24"><style>.st0{clip-path:url(#SVGID_2_)}</style><g fill="#1e3365"><path d="M25 8.8l-7.6 15-7.6-15H25zM10.5 7.2L17.4.3l6.9 6.9H10.5zM19.3 0h9.3L26 6.7 19.3 0zM8.9 6.6L6.7 0h8.8L8.9 6.6zM8 8.8L14.7 22 .4 8.8H8zm0 0"/><defs><path id="SVGID_1_" d="M0 0h34.8v24H0z"/></defs><clipPath id="SVGID_2_"><use xlink:href="#SVGID_1_" overflow="visible"/></clipPath><path class="st0" d="M26.8 8.8h7.5L20.1 22l6.7-13.2zm.7-1.6L30 .8l4.8 6.4h-7.3zm0 0"/><path d="M5.1.3l2.3 6.9H0L5.1.3zm0 0"/></g></svg>