<svg xmlns="http://www.w3.org/2000/svg" viewBox="0 0 303.5 359.7"><g fill="#1e3365"><path d="M34.6 56.4c0 5.5 4.5 10 10 10h191.6v248.4c0 5.5 4.5 10 10 10s10-4.5 10-10V56.4c0-5.5-4.5-10-10-10H44.6c-5.5 0-10 4.4-10 10zm0 0"/><path d="M293.5 0h-254c-3.3 0-6.4 1.6-8.3 4.4L1.8 47.8C.6 49.5 0 51.4 0 53.4v296.3c0 5.5 4.5 10 10 10h238.8c1.2 0 2.4-.2 3.4-.6 1.2-.3 2.4-.9 3.4-1.7l44-33.7c2.5-1.9 3.9-4.8 3.9-7.9V10c0-5.5-4.4-10-10-10zm-10 310.9l-37.7 28.8H20V56.5L44.8 20h238.7v290.9zm0 0"/><path d="M105.8 151c-.8-2.2-2.8-3.7-5.1-3.7h-10c-2.3 0-4.4 1.5-5.1 3.7L57 235.1c-.6 1.7-.3 3.5.7 4.9 1 1.4 2.7 2.3 4.4 2.3h6.2c2.3 0 4.4-1.5 5.2-3.7l8.1-24.5h27.9l8.3 24.5c.8 2.2 2.8 3.7 5.1 3.7h6.6c1.7 0 3.4-.8 4.4-2.3 1-1.4 1.3-3.3.7-4.9L105.8 151zm-20.1 48.7l7.6-22.4v-.1c.7-2.2 1.4-4.5 2.1-6.9.7 2.3 1.4 4.7 2.2 7.2l7.6 22.2H85.7zm93.7-28.6c-7.8 0-14.5 2.5-19.5 7.1v-25.7c0-3-2.4-5.4-5.4-5.4h-6.1c-1.4 0-2.8.6-3.8 1.6s-1.6 2.4-1.6 3.8v84.4c0 3 2.4 5.4 5.4 5.4h4.9c3 0 5.4-2.4 5.4-5.4v-.2c4.8 4.7 11.2 7.1 19.1 7.1 8.1 0 16-3.4 21.7-9.4 6.4-6.8 9.8-16.3 9.8-27.7.1-11.2-3.4-20.9-9.9-27.4-5.4-5.3-12.3-8.2-20-8.2zm9.6 54c-2.7 2.7-6.2 4.1-10.6 4.1-4.3 0-7.5-1.3-9.9-3.8-6-6.3-5.5-18.4-5.4-18.5v-.2c0-.8.5-20.7 15.8-20.7s16.4 20 16.5 20.8c-.2 3.1-1.2 12.9-6.4 18.3zm0 0"/></g></svg>