<svg id="Layer_1" xmlns="http://www.w3.org/2000/svg" xmlns:xlink="http://www.w3.org/1999/xlink" viewBox="0 0 27.8 21"><style>.st0{clip-path:url(#SVGID_2_)}</style><g fill="#1e3365"><defs><path id="SVGID_1_" d="M0 0h27.8v21H0z"/></defs><clipPath id="SVGID_2_"><use xlink:href="#SVGID_1_" overflow="visible"/></clipPath><path class="st0" d="M12.6 10.1c.2-.3.3-.6.3-.8-.1-.2-.3-.4-.7-.4-.4-.1-.7-.1-1 0-.3.1-.5.3-.7.5-.1.1-.1.2-.2.3 0 .1-.1.4-.1.7.4.1.9.2 1.3.3-.1.1-.2.2-.2.3-.4-.1-.8-.2-1.1-.3 0 .1-.1.2-.1.2 0 .1-.1.1-.1.2-.2.2-.4.4-.7.5-.4.2-.8.3-1.3.4h.7c.2 0 .4 0 .6.1.2.1.4.1.7.3.3.1.4.2.5.3h.4c.1 0 .2 0 .4-.1v.5c-.2 0-.4.1-.5.1-.2 0-.5 0-.7-.1-.2 0-.4-.2-.7-.3-.3-.2-.6-.3-.8-.4-.2-.1-.4-.1-.6-.1h-.5c0-.2 0-.4-.1-.5.4-.1.8-.2 1.1-.3.3-.1.5-.3.7-.5 0-.1.1-.1.1-.2s0-.1.1-.2c-.3-.1-.6-.2-.9-.2.1-.1.2-.2.2-.3.3-.1.5 0 .7.1V10c0-.2 0-.3.1-.3 0-.1.1-.1.1-.2s.1-.2.2-.3c.2-.3.6-.5 1.2-.7.5-.2 1.1-.2 1.8 0 .6.1 1 .4 1.1.7.1.3 0 .7-.3 1.2-.5-.2-.7-.2-1-.3zm1.9 10.7c2.3-2.9 4.7-5.9 7-8.8-.6-3.5-3-4.6-5.8-5.4l-2.5.7h.1c2.5.5 3.1 2.8 1.6 4.7-1.4 1.8-4.3 2.4-6.8 1.9S5 11.1 6.5 9.2c1.1-1.3 2.9-2 4.9-2-.4-.3-.7-.8-.8-1.3v-.8C8.8 4.3 7.4 3 7 .5 4.7 3.4 2.3 6.4 0 9.3c1.3 8.2 13.2 3.3 14.5 11.5zm7.4-4.6H19c-.3.4-.6.8-.9 1.1h3.8c1.1 0 2-.9 2-2v-5.2c0-.9-.2-2.1-.5-2.9l-2.1-5.9c-.2-.5-.5-.9-1-1.1-.5-.2-1-.3-1.5-.1l-6.2 2.3c-1 .4-1.6 1.5-1.5 2.5v.4c.1.5.4 1 .8 1.3.4.3 1 .3 1.5.2l3.5-1c.2-.1.4 0 .5 0 .1.1.2.3.2.4v.4l1.1.6V4l-2.1.6-3.5 1c-.2.1-.4 0-.6-.1-.2-.1-.3-.3-.3-.5l-.1-.4c-.1-.5.3-1.1.8-1.3L19.1 1c.2-.1.4-.1.6 0 .2.1.4.3.4.5l2.1 5.9c.2.7.4 1.8.4 2.6v5.2c.1.6-.2 1-.7 1zm5.6-7.9h-3.1v8.9h3.1V8.3zm0 0"/></g></svg>