<svg id="Isolation_Mode" xmlns="http://www.w3.org/2000/svg" viewBox="0 0 442.9 85.3"><style>.st0{fill:#666}</style><path class="st0" d="M7.7 55.2c-.2 1.4-.4 3-.4 4.7 0 10.9 5.6 19 17.5 19 9.6 0 16.9-6.2 19.7-14.9h7.4c-4 13.4-13.2 21.1-27.4 21.1C8.6 85.1 0 75.2 0 59.5c0-19 11.9-38.2 32.6-38.2 14.5 0 22.9 9.5 22.9 23.5 0 3.4-.1 6.8-.6 10.4H7.7zM48 49c0-1.6.1-3.2.1-4.7 0-10-6.3-16.8-16.5-16.8-12.1 0-20.4 10.3-23 21.5H48zm76-19.9c0-11.4-6.7-17.4-18.4-17.4-19.4 0-29 19.5-29 37.6 0 15.2 8.1 24.4 22.3 24.4 14.7 0 19.5-13.1 21.1-18.7h14.2c-4.7 20.5-18.8 30.3-35.8 30.3-23.3 0-36.1-15.4-36.1-35.6C62.5 15.5 84.9 0 106.1 0c19.3 0 32.7 10.4 32.1 29.1H124zM182.7 0c21.4 0 35.6 14.7 35.6 35.6 0 34.2-21.3 49.7-43.1 49.7-23.3 0-36.1-15.4-36.1-35.6 0-34.2 22.4-49.7 43.6-49.7zm-7 73.6c18.8 0 28.4-19.5 28.4-37.6 0-15.2-7.5-24.4-21.8-24.4-19.4 0-29 19.5-29 37.6 0 15.2 8.1 24.4 22.4 24.4zM287 83.3h-9.1v-8.5h-.2C272 82 262.9 85.3 256 85.3c-23.3 0-36.1-15.4-36.1-35.6 0-34.2 22.5-49.7 43.7-49.7 19.2 0 33.9 8.9 34 27.9h-14.2c-.6-11.1-8.2-16.3-20.2-16.3-19.4 0-29 19.5-29 37.6 0 15.2 8.1 24.4 22.3 24.4 14 0 21.7-9.3 24.7-22.3h-22.3l2.3-10.8h35L287 83.3zm27.2-81.4h35.2c7 0 25.7.9 25.7 20.7 0 12.9-7 20.1-18.5 22.1v.3c6.8 2.5 8.7 8 8.7 14.7 0 5.6-1.4 11.3-1.3 16.9 0 2.3.2 4.7 1.5 6.7h-14.9c-.7-2.1-.9-4-.9-6.3 0-6 1.4-11.9 1.4-17.8 0-9.5-7.6-9.5-15.3-9.5h-17l-7 33.5h-14.5l16.9-81.3zM321 39h20.9c12.1 0 18.9-5.4 18.9-14.8 0-8.9-7.1-10.6-14.6-10.6h-19.9L321 39z"/><path class="st0" d="M413.7 1.9h15l14.1 81.4h-14.5L425 61.8h-32.4l-12.5 21.5h-15.3l48.9-81.4zm4.9 14.4h-.2L398.8 51h24.9l-5.1-34.7z"/></svg>