<svg width="603" height="179" viewBox="0 0 603 179" xmlns="http://www.w3.org/2000/svg"><title>Page 1</title><g fill="none" fill-rule="evenodd"><path stroke="#fff" stroke-width="7.978" d="M85.504 97.129L7.56 115.312l54.073 58.863 83.306-24.525z"/><path fill="#a6b0b8" d="M154.375 96.337L68.25 135.099l-43.789-15.315 41.976 44.037z"/><path fill="#fff" d="M66.378 113.104L13.19 85.06l53.248 78.762L179.528 0z"/><g fill="#fff"><path d="M207.48 105.869c0-1.634.115-3.15.115-4.668 0-10.034-6.3-16.803-16.452-16.803-12.136 0-20.419 10.269-22.987 21.471h39.323zm-40.257 6.184c-.233 1.4-.35 3.034-.35 4.668 0 10.851 5.601 19.019 17.502 19.019 9.568 0 16.92-6.184 19.72-14.935h7.352c-3.968 13.418-13.186 21.119-27.422 21.119-15.869 0-24.503-9.918-24.503-25.554 0-19.019 11.901-38.155 32.555-38.155 14.468 0 22.87 9.451 22.87 23.453 0 3.384-.117 6.767-.584 10.385h-47.14zm116.32-26.143c0-11.399-6.726-17.441-18.354-17.441-19.38 0-28.955 19.494-28.955 37.619 0 15.162 8.094 24.396 22.344 24.396 14.705 0 19.493-13.11 21.09-18.696h14.249c-4.674 20.519-18.81 30.323-35.796 30.323-23.255 0-36.137-15.389-36.137-35.567 0-34.199 22.457-49.703 43.662-49.703 19.265 0 32.717 10.374 32.147 29.069h-14.25zm51.641 44.574c18.81 0 28.386-19.494 28.386-37.62 0-15.16-7.525-24.396-21.775-24.396-19.38 0-28.955 19.495-28.955 37.62 0 15.162 8.094 24.396 22.344 24.396m7.068-73.644c21.432 0 35.567 14.706 35.567 35.568 0 34.2-21.317 49.703-43.091 49.703-23.256 0-36.138-15.39-36.138-35.567 0-34.2 22.458-49.704 43.662-49.704m104.308 83.334h-9.12v-8.55h-.228c-5.7 7.182-14.82 10.487-21.66 10.487-23.256 0-36.138-15.39-36.138-35.567 0-34.2 22.458-49.703 43.662-49.703 19.152 0 33.857 8.892 33.971 27.93h-14.25c-.569-11.058-8.208-16.302-20.177-16.302-19.38 0-28.956 19.494-28.956 37.619 0 15.162 8.093 24.397 22.343 24.397 14.023 0 21.66-9.35 24.74-22.344h-22.345l2.28-10.83h34.997l-9.119 42.863zm33.971-44.346h20.861c12.084 0 18.924-5.357 18.924-14.819 0-8.892-7.068-10.602-14.592-10.602h-19.949l-5.244 25.421zm-6.84-37.049h35.225c6.954 0 25.65.912 25.65 20.747 0 12.882-6.954 20.065-18.469 22.116v.228c6.84 2.508 8.664 7.981 8.664 14.706 0 5.586-1.367 11.286-1.253 16.872 0 2.279.228 4.674 1.482 6.726h-14.934c-.683-2.052-.912-3.991-.912-6.27 0-6.042 1.367-11.856 1.367-17.784 0-9.462-7.636-9.462-15.275-9.462h-16.985l-6.954 33.516h-14.479l16.873-81.395z"/><path d="M578.114 73.142h-.227l-19.609 34.655h24.852l-5.016-34.655zm-4.902-14.362h15.048l14.135 81.394h-14.477l-3.307-21.547h-32.375l-12.539 21.547h-15.276l48.791-81.395z"/></g></g></svg>