<svg id="Layer_1" xmlns="http://www.w3.org/2000/svg" viewBox="0 0 150 26"><style>.st0{fill:#dfdfdf}.st1{fill:none}</style><title>favorite-gray</title><g id="Page-1_5_"><g id="favorite-gray"><g id="Page-1"><g id="favorite"><path id="Shape" class="st0" d="M28 9.9L19.4 8 15 0l-4.4 8L2 9.9l5.9 6.9L7 26l8-3.8 8 3.8-.9-9.2z"/></g></g><g id="Page-1_1_" transform="translate(30)"><g id="favorite_1_"><path id="Shape_1_" class="st0" d="M28 9.9L19.4 8 15 0l-4.4 8L2 9.9l5.9 6.9L7 26l8-3.8 8 3.8-.9-9.2z"/></g></g><g id="Page-1_2_" transform="translate(60)"><g id="favorite_2_"><path id="Shape_2_" class="st0" d="M28 9.9L19.4 8 15 0l-4.4 8L2 9.9l5.9 6.9L7 26l8-3.8 8 3.8-.9-9.2z"/></g></g><path id="Rectangle-path" class="st1" d="M62.1 0h30v26h-30z"/><g id="Page-1_3_" transform="translate(120)"><g id="favorite_3_"><path id="Shape_3_" class="st0" d="M28 9.9L19.4 8 15 0l-4.4 8L2 9.9l5.9 6.9L7 26l8-3.8 8 3.8-.9-9.2z"/></g></g><g id="Page-1_4_" transform="translate(90)"><g id="favorite_4_"><path id="Shape_4_" class="st0" d="M28 9.9L19.4 8 15 0l-4.4 8L2 9.9l5.9 6.9L7 26l8-3.8 8 3.8-.9-9.2z"/></g></g></g></g></svg>