<svg width="377" height="385" viewBox="0 0 377 385" xmlns="http://www.w3.org/2000/svg"><title>Page 1</title><g fill="#063566" fill-rule="evenodd"><path d="M318.484 233.926a3.055 3.055 0 0 1-3.058 3.055h-52.567a3.054 3.054 0 0 1-3.054-3.055v-82.398a3.055 3.055 0 0 1 3.054-3.059h50.856a3.058 3.058 0 0 1 3.058 3.059v15.281a3.057 3.057 0 0 1-3.058 3.054h-29.094v11.004h27.262a3.055 3.055 0 0 1 3.055 3.055v15.16a3.055 3.055 0 0 1-3.055 3.055h-27.262v13.449h30.805a3.055 3.055 0 0 1 3.058 3.055v15.285zm-65.285 0a3.054 3.054 0 0 1-3.054 3.055h-52.567a3.055 3.055 0 0 1-3.058-3.055v-82.398a3.056 3.056 0 0 1 3.058-3.059h50.856a3.055 3.055 0 0 1 3.054 3.059v15.281a3.054 3.054 0 0 1-3.054 3.054h-29.098v11.004h27.262a3.054 3.054 0 0 1 3.054 3.055v15.16a3.054 3.054 0 0 1-3.054 3.055h-27.262v13.449h30.809a3.054 3.054 0 0 1 3.054 3.055v15.285zm-63.293 1.605a3.05 3.05 0 0 1-2.597 1.45h-19.075a3.06 3.06 0 0 1-2.644-1.524c-.918-1.59-2.551-5.39-6.074-20.011-.004-.024-.012-.047-.016-.075-2.059-9.605-4.879-10.699-10.387-10.785h-2.515v29.34a3.058 3.058 0 0 1-3.059 3.055h-18.457a3.059 3.059 0 0 1-3.059-3.055v-81.301a3.057 3.057 0 0 1 2.567-3.015c6.816-1.114 16.039-1.75 25.308-1.75 13.508 0 22.313 2.199 28.547 7.136 5.723 4.578 8.739 11.364 8.739 19.637 0 9.484-5.321 16.707-11.668 20.746 4.632 3.984 6.761 9.942 8.015 14.512a720.14 720.14 0 0 1 2.098 7.808c1.672 6.309 3.398 12.832 4.414 14.86a3.06 3.06 0 0 1-.137 2.972zm-75.828-68.722a3.054 3.054 0 0 1-3.055 3.054H82.414v12.715h26.527a3.058 3.058 0 0 1 3.059 3.055v15.16a3.057 3.057 0 0 1-3.059 3.055H82.414v30.074a3.057 3.057 0 0 1-3.055 3.059H60.652a3.057 3.057 0 0 1-3.054-3.059v-82.394a3.055 3.055 0 0 1 3.054-3.059h50.371a3.055 3.055 0 0 1 3.055 3.059v15.281zm229.445 26.015l28.325-29.031a14.921 14.921 0 0 0 3.871-13.68 14.901 14.901 0 0 0-9.367-10.695l-38.036-14.074 12.93-38.445a14.905 14.905 0 0 0-2.441-14.004 14.899 14.899 0 0 0-13.078-5.574l-40.383 3.812-5.016-40.246a14.89 14.89 0 0 0-8.273-11.559 14.9 14.9 0 0 0-14.203.645l-35.051 21.14-22.305-34.332A14.893 14.893 0 0 0 188.004 0a14.893 14.893 0 0 0-12.492 6.781l-22.094 34.016-34.656-21.066a14.899 14.899 0 0 0-14.2-.696 14.907 14.907 0 0 0-8.316 11.532l-5.156 40.23-40.367-3.957a14.901 14.901 0 0 0-13.094 5.535 14.89 14.89 0 0 0-2.492 13.992l12.793 38.489-38.086 13.941a14.895 14.895 0 0 0-9.399 10.664 14.903 14.903 0 0 0 3.821 13.692l28.222 29.128-28.273 29.082a14.901 14.901 0 0 0 5.535 24.364l38.066 14.008-12.867 38.468a14.885 14.885 0 0 0 2.469 13.996 14.889 14.889 0 0 0 13.082 5.555l40.375-3.883 5.09 40.242a14.89 14.89 0 0 0 8.293 11.543 14.9 14.9 0 0 0 14.199-.668l34.695-21.007 22.036 34.05a14.899 14.899 0 0 0 12.484 6.805h.023c5.035 0 9.731-2.543 12.477-6.762l22.152-33.972 34.625 21.129a14.89 14.89 0 0 0 14.196.718 14.892 14.892 0 0 0 8.335-11.515l5.231-40.223 40.359 4.024c5.024.5 9.953-1.575 13.106-5.508a14.897 14.897 0 0 0 2.515-13.992l-12.73-38.508 38.113-13.875a14.91 14.91 0 0 0 9.418-10.649 14.903 14.903 0 0 0-3.801-13.699l-28.168-29.18z"/><path d="M151.953 167.785c-2 0-3.793.078-5.355.227v17.012h4.277c3.531 0 11.738-.86 11.738-8.801 0-2.051-.004-8.277-10.66-8.438"/></g></svg>