<svg id="Grey_Tone" data-name="Grey Tone" xmlns="http://www.w3.org/2000/svg" width="1076.689" height="290.437" viewBox="0 0 1076.689 290.437"><defs><style>.cls-1{fill:#fff;fill-rule:evenodd}</style></defs><path id="COMMISSION" class="cls-1" d="M74.711 275.055q-20.7 0-32.178-13.477a47.533 47.533 0 0 1-11.475-31.836q0-17.967 9.668-30.517t29.492-12.549a71.952 71.952 0 0 1 22.07 3.711l3.418-22.559a90.414 90.414 0 0 0-22.559-2.734q-32.423 0-51.025 20.312A68.411 68.411 0 0 0 3.52 233.16q0 26.466 17.529 44.971t51.025 18.506a117.175 117.175 0 0 0 27.344-3.321l1.66-22.461a93.793 93.793 0 0 1-26.367 4.2zM210.9 181.988q-17.383-18.065-43.164-18.066-27.051 0-45.41 19.726t-18.359 49.707q0 27.932 17.383 46.045t43.164 18.116q27.048 0 45.41-19.727t18.359-49.707q.002-28.026-17.383-46.094zm-19.531 81.2q-9.962 12.843-24.219 12.842-15.234 0-25.732-12.744t-10.5-33.057q0-19.53 9.961-32.324t24.221-12.792q15.33 0 25.781 12.7t10.449 33.1q.002 19.435-9.959 32.276zM382.1 238.971q-4.542-51.9-4.541-72.119h-37.5q0 10.839-13.624 48.144t-13.623 47.852h-1.464q0-10.449-11.963-47.754t-11.963-48.242h-37.789q0 12.7-7.08 68.457T235.473 294h25.781q0-12.695 2.295-52.832t2.392-52.344h1.465a245.547 245.547 0 0 0 5.469 24.61q3.417 12.4 14.5 43.359T298.461 294h21.582q0-6.054 11.572-36.865t15.772-46.635q4.2-15.821 5.176-21.68h1.464q.1 9.767 2.149 49.17t2.051 56.01h28.418q0-3.124-4.545-55.029zm162.753 0q-4.54-51.9-4.541-72.119h-37.5q0 10.839-13.623 48.144t-13.619 47.852h-1.465q0-10.449-11.962-47.754t-11.963-48.242h-37.793q0 12.7-7.08 68.457T398.227 294h25.781q0-12.695 2.3-52.832t2.392-52.344h1.465a245.547 245.547 0 0 0 5.469 24.61q3.417 12.4 14.5 43.359T461.215 294H482.8q0-6.054 11.572-36.865t15.769-46.635q4.2-15.821 5.175-21.68h1.465q.1 9.767 2.149 49.17t2.05 56.01h28.42q0-3.124-4.543-55.029zm46.889-11.471q0-36.035 1.27-60.644h-27.637q1.268 25 1.27 60.644 0 36.232-1.27 66.5h27.637q-1.27-29.687-1.27-66.5zm91.367 5.078q-8.3-8.1-25-14.844-15.723-6.346-20.41-9.863a12.791 12.791 0 0 1-5.371-10.644q0-12.3 23.047-12.305a83 83 0 0 1 28.516 4.785l3.613-21.68q-12.989-3.222-32.129-3.222-23.341 0-35.791 9.472t-12.451 26.27q0 14.454 9.472 24.316 7.52 7.815 22.95 14.454 16.992 7.227 22.558 11.718 6.445 5.079 6.446 12.5 0 7.129-6.836 10.157t-22.461 3.027a91.566 91.566 0 0 1-29.883-5.469l-4.785 21.777a127.973 127.973 0 0 0 34.668 4.493q54.881 0 54.883-38.184a36.028 36.028 0 0 0-11.036-26.758zm94.59 0q-8.3-8.1-25-14.844-15.724-6.346-20.41-9.863a12.791 12.791 0 0 1-5.371-10.644q0-12.3 23.047-12.305a82.992 82.992 0 0 1 28.515 4.778l3.614-21.68q-12.994-3.22-32.129-3.22-23.342 0-35.791 9.472t-12.451 26.27q0 14.454 9.472 24.316 7.519 7.815 22.95 14.454 16.992 7.227 22.558 11.718 6.446 5.079 6.445 12.5 0 7.129-6.835 10.157t-22.461 3.027a91.566 91.566 0 0 1-29.883-5.469l-4.785 21.777a127.973 127.973 0 0 0 34.668 4.493q54.88 0 54.882-38.184a36.031 36.031 0 0 0-11.034-26.757zm48.985-5.078q0-36.035 1.269-60.644h-27.637q1.269 25 1.27 60.644 0 36.232-1.27 66.5h27.637q-1.27-29.687-1.269-66.5zm119.785-45.508q-17.384-18.065-43.164-18.066-27.052 0-45.41 19.726t-18.36 49.707q0 27.932 17.383 46.045t43.164 18.116q27.049 0 45.41-19.727t18.36-49.707q0-28.03-17.383-46.098zm-19.531 81.2q-9.961 12.843-24.219 12.842-15.234 0-25.733-12.744t-10.5-33.057q0-19.53 9.961-32.324t24.219-12.793q15.33 0 25.781 12.7t10.449 33.1q.004 19.432-9.958 32.273zM1078.85 227.5q0-36.425 1.37-60.644h-24.42q1.38 27.831 1.37 54.3a366.909 366.909 0 0 0 2.35 39.063h-1.47q-3.81-13.671-29.49-52.051-24.12-36.13-24.12-41.308h-29.006q1.464 25 1.464 60.644 0 36.232-1.464 66.5h24.023q-1.368-34.666-1.367-58.789a344.073 344.073 0 0 0-2.442-38.672h1.563q3.9 14.846 32.029 55.176Q1056.105 290 1056.1 294h24.12q-1.365-29.784-1.37-66.5z" transform="translate(-3.531 -7.094)"/><path id="GAMBLING" class="cls-1" d="M109.867 102.992q0-15.234.781-30.273H83.012a155.879 155.879 0 0 1 2.051 23.73 158.864 158.864 0 0 0 1.465 21.289 82.721 82.721 0 0 1-12.891 1.172q-20.02 0-31.4-13.867a49.7 49.7 0 0 1-11.377-32.52q0-18.26 10.156-30.908t30.765-12.646a110.227 110.227 0 0 1 27.539 4l3.223-23.047a121.635 121.635 0 0 0-27.734-2.828q-33.5 0-52.393 20.41T3.52 75.551q0 26.271 17.334 44.678t50.928 18.408q15.623 0 38.867-5.957-.781-18.653-.781-29.688zm104.7-30.42Q193.91 14.418 193.91 8.852H157q0 5.958-22.8 64.648T111.4 136h29.394q0-6.933 9.18-36.523h45.117q8.885 30.08 8.887 36.523h31.25q-.009-5.274-20.664-63.428zm-60.009 8.252q17.282-50.683 17.282-54.492h1.56q0 4.1 16.7 54.492h-35.545zm228.037.146q-4.542-51.9-4.541-72.119h-37.5q0 10.84-13.623 48.145t-13.623 47.852h-1.468q0-10.449-11.963-47.754T287.914 8.852h-37.793q0 12.7-7.08 68.457T235.961 136h25.781q0-12.694 2.295-52.832t2.393-52.344h1.47a245.75 245.75 0 0 0 5.468 24.609q3.417 12.4 14.5 43.359T298.949 136h21.582q0-6.054 11.573-36.865T347.875 52.5q4.2-15.82 5.176-21.68h1.465q.1 9.766 2.148 49.17t2.051 56.01h28.418q0-3.124-4.541-55.029zm109.675-5.175a41.426 41.426 0 0 0-20.606-9.228V65.1q22.167-7.031 22.168-28.711 0-28.125-43.262-28.125-5.958 0-16.552.293t-15.088.293h-15.821q1.269 25.1 1.27 60.645 0 37.013-1.27 66.5 23.34.587 34.375.586 63.575 0 63.575-38.867 0-14.545-8.789-21.919zm-25.977 38.086q-8.4 4.347-26.465 4.346a46.835 46.835 0 0 1-9.961-.782q-.879-17.187-.879-37.6 4.882-.488 11.621-.488 34.082 0 34.082 19.434 0 10.745-8.398 15.09zM436.7 62.172q-4.1 0-7.812-.2 0-24.024-1.075-33.887a97.689 97.689 0 0 1 17.872-1.465q21.873 0 21.875 17.481 0 18.068-30.86 18.066zm100.938 54q1.268-17.286 1.269-46.68 0-38.475 1.172-60.645h-27.438q1.172 23.927 1.172 60.645 0 40.041-1.172 66.5h81.152l.781-21.289q-29.981 1.466-56.933 1.465zm88.44-46.672q0-36.035 1.27-60.645h-27.637q1.268 25 1.269 60.645 0 36.232-1.269 66.5h27.637q-1.27-29.686-1.27-66.5zm122.813 0q0-36.424 1.367-60.645h-24.414q1.366 27.832 1.367 54.3a368.637 368.637 0 0 0 2.344 39.063h-1.465Q724.282 88.54 698.6 50.16q-24.125-36.131-24.123-41.308h-29q1.464 25 1.465 60.645 0 36.232-1.465 66.5H669.5q-1.368-34.667-1.367-58.789a344.279 344.279 0 0 0-2.441-38.672h1.562q3.9 14.845 32.031 55.176Q726.136 132 726.137 136h24.121q-1.37-29.784-1.367-66.5zm119.3 33.5q0-15.234.781-30.273h-27.64a155.907 155.907 0 0 1 2.051 23.73 158.782 158.782 0 0 0 1.465 21.289 82.728 82.728 0 0 1-12.891 1.172q-20.02 0-31.4-13.867a49.7 49.7 0 0 1-11.377-32.52q0-18.26 10.156-30.908T830.1 28.969a110.231 110.231 0 0 1 27.539 4l3.222-23.047a121.635 121.635 0 0 0-27.734-2.832q-33.5 0-52.393 20.41t-18.9 48.047q0 26.271 17.334 44.678t50.932 18.412q15.623 0 38.867-5.957-.783-18.653-.781-29.688z" transform="translate(-3.531 -7.094)"/></svg>