<svg width="345" height="331" viewBox="0 0 345 331" xmlns="http://www.w3.org/2000/svg" xmlns:xlink="http://www.w3.org/1999/xlink"><title>Page 1</title><defs><path id="a" d="M344.88 330.683V0H0v330.683h344.88z"/></defs><g fill="none" fill-rule="evenodd"><path d="M55.066 72.554h204.649c6.305 0 11.414-5.109 11.414-11.41 0-6.304-5.109-11.414-11.414-11.414H55.066c-6.304 0-11.414 5.11-11.414 11.414 0 6.301 5.11 11.41 11.414 11.41m0 48.692h204.649c6.305 0 11.414-5.109 11.414-11.414 0-6.301-5.109-11.41-11.414-11.41H55.066c-6.304 0-11.414 5.109-11.414 11.41 0 6.305 5.11 11.414 11.414 11.414m108.575 25.867H55.066c-6.304 0-11.414 5.109-11.414 11.41 0 6.305 5.11 11.414 11.414 11.414h108.575c6.3 0 11.41-5.109 11.41-11.414 0-6.301-5.11-11.41-11.41-11.41" fill="#1e3365"/><mask id="b" fill="#fff"><use xlink:href="#a"/></mask><path d="M267.328 256.734c-26.797 0-48.523-21.722-48.523-48.523 0-26.797 21.726-48.52 48.523-48.52 26.797 0 48.524 21.723 48.524 48.52 0 26.801-21.727 48.523-48.524 48.523zM22.824 22.824h281.629l.004 125.246-8.922-10.73c-1.629-1.961-4.613-3.278-7.422-3.278-.683 0-1.336.078-1.945.235l-14.398 3.664c-2.293.582-6.59.582-8.883 0l-14.399-3.664a7.765 7.765 0 0 0-1.945-.235c-2.809 0-5.789 1.317-7.418 3.278l-9.496 11.422c-1.586 1.91-4.879 4.3-7.184 5.222l-13.793 5.504c-3.031 1.211-5.578 4.711-5.793 7.969l-.984 14.812c-.164 2.481-1.422 6.352-2.746 8.457l-7.906 12.559c-1.743 2.762-1.743 7.09 0 9.852l3.265 5.191H22.824V22.824zm321.473 297.793l-29.836-59.074 11.547-4.61c3.031-1.207 5.574-4.707 5.793-7.964l.98-14.813c.164-2.484 1.422-6.355 2.75-8.457l7.907-12.562c1.742-2.762 1.742-7.09 0-9.852l-7.907-12.559c-1.324-2.105-2.582-5.976-2.746-8.457l-.984-14.812c-.188-2.789-2.078-5.75-4.524-7.305V22.824C327.277 10.238 317.039 0 304.457 0H22.824C10.238 0 0 10.238 0 22.824v195.504c0 12.586 10.238 22.824 22.824 22.824H202.34l.519 7.817c.215 3.257 2.758 6.757 5.793 7.964l10.836 4.329-29.976 59.355c-.922 1.828-.676 2.926-.305 3.527.234.383.809 1.024 2.016 1.024.605 0 1.304-.164 2.074-.489l24.555-10.281c.605-.25 1.324-.386 2.078-.386 1.804 0 3.644.75 4.683 1.902l11.797 13.078c.985 1.09 2.199 1.691 3.426 1.691 1.617 0 3.07-1.046 3.883-2.796l23.109-49.856h.152l23.114 49.856c.808 1.75 2.261 2.796 3.879 2.796 1.226 0 2.441-.601 3.425-1.691l11.797-13.078c1.039-1.152 2.879-1.902 4.684-1.902.754 0 1.473.136 2.078.386l24.555 10.281c.769.325 1.468.489 2.074.489 1.207 0 1.781-.641 2.016-1.024.371-.601.621-1.699-.305-3.527z" fill="#1e3365" mask="url(#b)"/></g></svg>