<svg id="Layer_1" xmlns="http://www.w3.org/2000/svg" xmlns:xlink="http://www.w3.org/1999/xlink" viewBox="0 0 33.9 35"><style>.st0{clip-path:url(#SVGID_2_)}</style><g fill="#1e3365"><defs><path id="SVGID_1_" d="M0 0h33.8v35H0z"/></defs><clipPath id="SVGID_2_"><use xlink:href="#SVGID_1_" overflow="visible"/></clipPath><path class="st0" d="M33.9 28.6c0 1.8-1.4 3.2-3.2 3.2H15.2c-1.8 0-3.2-1.4-3.2-3.2 0-1.8 1.4-3.2 3.2-3.2h15.4c1.8 0 3.3 1.4 3.3 3.2zM7.5 23.2H3.4c-1.9 0-3.4 1.5-3.4 3.4v4.1c0 1.9 1.5 3.4 3.4 3.4h4.1c1.9 0 3.4-1.5 3.4-3.4v-4.1c0-1.9-1.5-3.4-3.4-3.4zm23.2-9.4H15.2c-1.8 0-3.2 1.4-3.2 3.2 0 1.8 1.4 3.2 3.2 3.2h15.4c1.8 0 3.2-1.4 3.2-3.2.1-1.7-1.4-3.2-3.1-3.2zM10.9 15v4.1c0 1.9-1.5 3.4-3.4 3.4H3.4C1.5 22.5 0 21 0 19.1V15c0-1.9 1.5-3.4 3.4-3.4h4.1c1.9 0 3.4 1.5 3.4 3.4zm-1.6-.3c-.5-.5-1.2-.5-1.7 0l-.3.3-2.6 2.6-1.4-1.4c-.5-.5-1.2-.5-1.7 0s-.5 1.2 0 1.7l2.3 2.3c.2.2.5.4.9.4.3 0 .6-.1.8-.4l1.1-1.1.9-.9 1.8-1.8c.4-.4.4-1.2-.1-1.7zm5.9-6.1h15.4c1.8 0 3.2-1.4 3.2-3.2 0-1.8-1.4-3.2-3.2-3.2H15.2c-1.8 0-3.2 1.4-3.2 3.2 0 1.8 1.5 3.2 3.2 3.2zM7.5 0H3.4C1.5 0 0 1.5 0 3.4v4.1c0 1.9 1.5 3.4 3.4 3.4h4.1c1.9 0 3.4-1.5 3.4-3.4V3.4C10.9 1.5 9.4 0 7.5 0zm0 0"/></g></svg>