<svg id="Layer_1" xmlns="http://www.w3.org/2000/svg" xmlns:xlink="http://www.w3.org/1999/xlink" viewBox="0 0 69.8 71"><style>.st0{clip-path:url(#SVGID_2_)}</style><g fill="#1e3365"><defs><path id="SVGID_1_" d="M0 0h69.8v71H0z"/></defs><clipPath id="SVGID_2_"><use xlink:href="#SVGID_1_" overflow="visible"/></clipPath><path class="st0" d="M48.5 8.3C37.4-2.8 19.4-2.8 8.3 8.3c-11.1 11.1-11.1 29.1 0 40.2 10.7 10.7 27.9 11.1 39 1.1l2.2 2.3c-.6 1.4-.3 3.1.9 4.3L62.3 68c1.6 1.6 4.1 1.6 5.7 0 1.6-1.6 1.6-4.1 0-5.7L56.1 50.4c-1.2-1.2-2.9-1.4-4.3-.9l-2.2-2.2c9.9-11.1 9.6-28.3-1.1-39zM11.7 45.1c-9.2-9.2-9.2-24.2 0-33.4s24.2-9.2 33.4 0 9.2 24.2 0 33.4-24.2 9.2-33.4 0zm0 0"/><path d="M26.1 29.6l-.7-10.1c-.1-2-.2-3.4-.2-4.2 0-1.2.3-2.1.9-2.7.6-.7 1.4-1 2.4-1 1.2 0 2 .4 2.4 1.3.4.8.6 2 .6 3.6 0 .9-.1 1.9-.1 2.8l-.9 10.4c-.1 1.2-.3 2.2-.6 2.9-.3.7-.9 1-1.6 1-.8 0-1.3-.3-1.6-1-.3-.7-.5-1.7-.6-3zm2.3 13.9c-.9 0-1.6-.3-2.2-.8-.6-.6-1-1.3-1-2.3 0-.9.3-1.6.9-2.2.6-.6 1.4-.9 2.2-.9.9 0 1.6.3 2.3.9.6.6.9 1.4.9 2.2 0 1-.3 1.8-.9 2.3-.6.6-1.3.8-2.2.8zM14 60.6h28.8v3.2H14zm6.4 7h16v3.2h-16z"/></g></svg>