<svg width="317" height="272" viewBox="0 0 317 272" xmlns="http://www.w3.org/2000/svg"><title>Page 1</title><g fill-rule="evenodd"><path d="M267.191 225.738c0 11.696-9.515 21.215-21.211 21.215H46.262c-11.696 0-21.211-9.519-21.211-21.215V46.262c0-11.696 9.515-21.215 21.211-21.215H245.98c11.696 0 21.211 9.519 21.211 21.215v179.476zM292.09 42.672C290.246 18.836 270.277 0 245.98 0H46.262C20.754 0 0 20.754 0 46.262v179.476C0 251.246 20.754 272 46.262 272h223.933c25.508 0 46.262-20.754 46.262-46.262V83.395c0-17.59-9.879-32.903-24.367-40.723z"/><path d="M50.32 93.883h.524a6.526 6.526 0 0 0 6.523-6.528V64.352l19.488 26.839a6.528 6.528 0 0 0 5.278 2.692h.633c.027 0 .05-.004.07-.004.035 0 .066.004.102.004h.519a6.523 6.523 0 0 0 6.523-6.528V44.492a6.523 6.523 0 0 0-6.523-6.527h-.519a6.527 6.527 0 0 0-6.528 6.527v23.004l-19.484-26.84a6.531 6.531 0 0 0-5.281-2.691h-.633c-.024 0-.047.004-.071.004-.035 0-.066-.004-.097-.004h-.524a6.526 6.526 0 0 0-6.523 6.527v42.863a6.523 6.523 0 0 0 6.523 6.528m79.614-13.051h-20.352v-8.777h16.613a6.525 6.525 0 0 0 6.524-6.524v-.523a6.526 6.526 0 0 0-6.524-6.528h-16.613v-6.941h19.48a6.526 6.526 0 0 0 6.524-6.527v-.52a6.523 6.523 0 0 0-6.524-6.527h-26.527a6.527 6.527 0 0 0-6.527 6.527v42.863a6.527 6.527 0 0 0 6.527 6.528h27.403a6.526 6.526 0 0 0-.004-13.051m29.234 13.051h.398c.008 0 .02-.004.028-.004s.015.004.023.004h.34a6.528 6.528 0 0 0 6.184-4.442l8.156-24.218 8.117 24.211a6.523 6.523 0 0 0 6.188 4.449h.789a6.523 6.523 0 0 0 6.179-4.43l14.535-42.867a6.527 6.527 0 0 0-6.179-8.621h-.668a6.524 6.524 0 0 0-6.192 4.473l-8.05 24.292-8.09-24.3a6.53 6.53 0 0 0-6.192-4.465h-.91a6.529 6.529 0 0 0-6.195 4.473l-8.051 24.292-8.086-24.3a6.53 6.53 0 0 0-6.191-4.465h-.668a6.53 6.53 0 0 0-5.305 2.726 6.518 6.518 0 0 0-.875 5.895l14.535 42.867a6.521 6.521 0 0 0 6.18 4.43m72.43 0c14.464 0 20.941-8.422 20.941-16.715.098-12.941-11.164-16.344-17.894-18.379-7.469-2.258-8.172-3.164-8.172-4.996 0-1.09 2.609-2.254 6.496-2.254 2.597 0 5.679.762 7.488 1.856a6.525 6.525 0 0 0 8.906-2.129l.239-.387a6.522 6.522 0 0 0-2.137-9.027c-3.996-2.434-9.414-3.887-14.496-3.887-13.864 0-20.071 7.949-20.071 15.828 0 12.602 10.664 15.832 17.723 17.969 7.684 2.328 8.363 3.25 8.344 5.359 0 2.191-3.82 3.188-7.367 3.188-3.45 0-7.231-1.473-9.414-3.664a6.518 6.518 0 0 0-4.618-1.918h-.004a6.54 6.54 0 0 0-4.617 1.91l-.355.355a6.53 6.53 0 0 0 .062 9.293c4.817 4.688 12.078 7.598 18.946 7.598m-113.727 19.015H55.805c-6.918 0-12.528 5.61-12.528 12.528 0 6.914 5.61 12.523 12.528 12.523h62.066c6.914 0 12.524-5.609 12.524-12.523 0-6.918-5.606-12.528-12.524-12.528m0 41.75H55.805c-6.918 0-12.528 5.606-12.528 12.524 0 6.918 5.61 12.523 12.528 12.523h62.066c6.914 0 12.524-5.605 12.524-12.523 0-6.918-5.606-12.524-12.524-12.524m0 41.75H55.805c-6.918 0-12.528 5.606-12.528 12.524 0 6.918 5.61 12.523 12.528 12.523h62.066c6.914 0 12.524-5.605 12.524-12.523 0-6.918-5.606-12.524-12.524-12.524m127.418-85.269h-95.715a7.253 7.253 0 0 0-7.25 7.25v97.586a7.25 7.25 0 0 0 7.25 7.25h95.715a7.25 7.25 0 0 0 7.25-7.25v-97.586a7.25 7.25 0 0 0-7.25-7.25"/></g></svg>