<svg id="Layer_1" xmlns="http://www.w3.org/2000/svg" xmlns:xlink="http://www.w3.org/1999/xlink" viewBox="0 0 22.9 23"><style>.st0{clip-path:url(#SVGID_2_)}</style><g fill="#1e3365"><path d="M7.5 16c.3-.4.6-.9.7-1.4-.4-.7-.7-1.5-.8-2.3 0-.2-.1-.4-.1-.7v-.5l-1.1-2 3.3-1.9-2.4-4.1L0 7.3l2.4 4.1 3.3-1.9L7 11.8c-.4-.2-.8-.3-1.2-.3-1.4 0-2.5 1.1-2.5 2.5 0 1 .6 2.1 1.4 2.6-2 .5-3.4 2.2-3.4 3.5 0 .6 1.3.9 3 1.1v-.1c-.1-1.9 1.3-3.8 3.2-5.1zm-4.9-5.4L.8 7.5 6.9 4l1.8 3.1-6.1 3.5zm0 0"/><defs><path id="SVGID_1_" d="M0 0h22.8v23H0z"/></defs><clipPath id="SVGID_2_"><use xlink:href="#SVGID_1_" overflow="visible"/></clipPath><path class="st0" d="M15.7 8.6c.4.4.7 1 .9 1.5V6h5V0H10.7v6h5v2.6zm3.8 8c.8-.5 1.4-1.6 1.4-2.6 0-1.4-1.1-2.5-2.5-2.5-.6 0-1.1.2-1.6.6-.1.9-.4 1.8-.9 2.6.1.5.4 1 .7 1.4 1.9 1.3 3.3 3.2 3.3 5v.1c1.6-.1 3-.5 3-1.1 0-1.3-1.4-3-3.4-3.5zm0 0"/><path class="st0" d="M13.8 15.7c1.3-.9 2.1-2.5 2.1-4.1 0-2.1-1.7-3.9-3.9-3.9-2.1 0-3.9 1.7-3.9 3.9 0 1.5.9 3.2 2.1 4.1-3 .8-5.3 3.4-5.3 5.4 0 2.3 14 2.3 14 0 .2-2-2.1-4.7-5.1-5.4zm0 0"/></g></svg>