<svg xmlns="http://www.w3.org/2000/svg" viewBox="0 0 391.9 392"><g fill="#1e3365"><path d="M119.3 211c-35 0-64.2-28.3-64.2-64.2 0-35.9 28.3-64.2 64.2-64.2 35.9 0 64.2 28.3 64.2 64.2 0 35.9-28.4 64.2-64.2 64.2zm0-110.9c-25.8 0-47.5 20.9-47.5 47.5 0 25.8 20.9 47.5 47.5 47.5 25.8 0 47.5-20.9 47.5-47.5s-20.9-47.5-47.5-47.5zm124.2 75c-3.4-1.7-5-4.2-5-7.5v-30h-30c-5 0-8.3-3.4-8.3-8.3V8.3c0-5 3.4-8.3 8.3-8.3h175.1c5 0 8.3 3.4 8.3 8.3v121c0 5-3.4 8.3-8.3 8.3h-95l-35.8 35.8c-1.8 1.7-5.5 3.2-9.3 1.7zM216.9 121h30c5 0 8.3 3.4 8.3 8.3v18.3l24.2-24.2c1.7-1.7 3.4-2.5 5.8-2.5h90.1V16.7H216.9V121zM231 392H8.3c-5 0-8.3-3.4-8.3-8.3v-98.4c0-26.7 21.7-49.2 49.2-49.2h37.5c2.5 0 4.2.8 5.8 2.5l27.5 27.5 27.5-27.5c1.7-1.7 3.4-2.5 5.8-2.5H191c26.7 0 49.2 21.7 49.2 49.2v98.4c-.8 4.9-5 8.3-9.2 8.3zM16.7 375.3h206v-90c0-17.5-14.2-32.6-32.6-32.6h-33.4l-30.9 30.9c-3.4 3.4-8.3 3.4-11.7 0l-30.9-30.9H50.1c-17.5 0-32.6 14.2-32.6 32.6v90.1l-.8-.1zm0 0"/><path d="M316.1 107.6c-1.7 0-2.5 0-4.2-.8l-15.8-8.4-15.8 8.3c-2.5 1.7-5.8.8-9.2-.8-2.5-1.7-4.2-5-3.4-8.3l3.4-17.5-12.5-12.5c-2.5-2.5-3.4-5.8-2.5-8.3.8-2.5 3.4-5 6.6-5.8l17.5-2.5 7.5-15.8c1.7-2.5 4.2-5 7.5-5 3.4 0 5.8 1.7 7.5 5l7.5 15.8 19.2 2.5c3.4.8 5.8 2.5 6.6 5.8.8 3.4 0 6.6-2.5 8.3L321 80.1l3.4 17.5c.8 3.4-.8 6.6-3.4 8.3-1.6.8-3.2 1.7-4.9 1.7zm-34.2-40.1l4.2 3.4c1.7 1.7 2.5 5 2.5 7.5l-.8 5.8 5-2.5c2.5-1.7 5-1.7 7.5 0l5 2.5-.8-5c-.8-2.5.8-5.8 2.5-7.5l4.2-3.4-6.6-1.7c-2.5 0-5-2.5-6.6-4.2l-1.7-5-2.5 5c-.8 2.5-3.4 4.2-6.6 4.2l-5.3.9zm0 0"/></g></svg>