<svg id="Layer_1" xmlns="http://www.w3.org/2000/svg" xmlns:xlink="http://www.w3.org/1999/xlink" viewBox="0 0 489.8 418"><style>.st0{clip-path:url(#SVGID_2_)}</style><g fill="#1e3365"><defs><path id="SVGID_1_" d="M0 0h489.8v418H0z"/></defs><clipPath id="SVGID_2_"><use xlink:href="#SVGID_1_" overflow="visible"/></clipPath><path class="st0" d="M489.4 184.3S475.5 0 270 0c0 0-19.3-.1-44.7 5.9-10.6 2.2-20.5 5-29.8 8.3-32.9-13.3-94.1 12.5-94.1 12.5-50.3 22.7-7 39.2-7 39.2 4.6 1.5 8.9 3.1 12.9 4.8-7.8 7.5-11.6 13-11.6 13-15 19.5-27.1 44.1-33.9 73.8 0 0-2.8 21.9-22.2 21.9h-25S-3 178.3.7 202.7L8.6 273s3.7 18.6 19 18.6c0 0 34.8-.5 66.8 13.3 21.2-10 26.9-29.8 27.2-30.7 1.8-6.5 8.5-10.4 15-8.6 6.5 1.8 10.4 8.4 8.7 14.9-.3 1.2-7 22.7-27.7 38.4 15.2 12.1 28 29.4 28 54.3v44.1h70l25.9-47.9s38.4 7.5 81-3.2l31.5 51.1h75.2v-64.9s-1.4-32.2 22.8-63c-.3 0 41.1-50.8 37.4-105.1zm-388.1-8.2c-7.3 0-13.3-6.5-13.3-14.5s5.9-14.6 13.3-14.6c7.3 0 13.3 6.5 13.3 14.6-.1 8-6 14.5-13.3 14.5zm231.8-98H242c-5.6 0-10.1-4.5-10.1-10.1s4.5-10.1 10.1-10.1h91.1c5.6 0 10.1 4.5 10.1 10.1 0 5.5-4.5 10.1-10.1 10.1zm0 0"/></g></svg>