<svg xmlns="http://www.w3.org/2000/svg" viewBox="0 0 272 272"><g fill="#1e3365"><path d="M193.9 103.5c0-5.4-4.4-9.8-9.8-9.8-4.5 0-9.6 3.2-9.6 7.7v32.3c0 1.5-1.3 3.3-2.9 3.3-1.6 0-2.8-1.3-2.8-2.9V79c0-5.4-4.4-9.8-9.8-9.8-4.7 0-9.7 3.3-9.7 8.2V133c0 1.6-1.3 2.9-2.9 2.9-1.6 0-2.9-1.3-2.9-2.9V59c0-2.6-1-5.1-2.9-6.9-1.9-1.9-4.3-2.9-6.9-2.9-5.3 0-9.7 4.3-9.8 9.7v73.8c0 .8-.3 1.5-.9 2.1-.5.6-1.3.9-2.1.9-1.6 0-2.9-1.3-2.9-2.9V78.9c0-5.1-5-8.3-9.7-8.3-5.4 0-9.8 4.4-9.8 9.8v80.9c0 1.3-1.1 2.7-3 2.7-1.4 0-2.9-.8-4.4-2.4l-9.5-9.5c-2.3-2.3-5.1-3.5-8.1-3.5-2.7 0-5.2 1.1-7.2 3-4.1 4.1-4.3 10.6-.3 16.4l.1.1c.3.5 7.4 12.1 20.3 23.5 12 10.7 31.5 23.4 56.7 23.4 44.2 0 50.8-28.6 50.8-45.7v-65.8zm0 0"/><path d="M232.2 39.8C206.5 14.1 172.3 0 136 0S65.5 14.1 39.8 39.8C14.1 65.5 0 99.7 0 136s14.1 70.5 39.8 96.2C65.5 257.9 99.7 272 136 272s70.5-14.1 96.2-39.8c25.7-25.7 39.8-59.8 39.8-96.2s-14.1-70.5-39.8-96.2zM136 255.7C70 255.7 16.3 202 16.3 136S70 16.3 136 16.3 255.7 70 255.7 136 202 255.7 136 255.7zm0 0"/></g></svg>