<svg xmlns="http://www.w3.org/2000/svg" viewBox="0 0 65.2 65.2"><g fill="#788f9b"><path d="M53.7 34.9s.1 1.3-.5 2.8l4.1 2.2c2-2.7 1-5.6 1-5.6l-4.6.6zM24.2 51.5l-.2-.1-3 3.9.1.1c1.7 1.8 3.8 2.1 4.8 2.1h.9l.2-4.8v-.2h-.2c-.1-.1-1.3-.2-2.6-1zm2.2 5.6h-.5c-1 0-2.8-.2-4.4-1.8l2.6-3.4c1.1.6 2 .8 2.4.9l-.1 4.3zm-11-36.5l-3.1-3.4C9.5 19 9.5 22 9.5 22.1l4.5.9s.4-1.2 1.4-2.4zm32-3.1l.1.1 4.2-2.6-.1-.2c-1.3-3-4.2-3.7-4.5-3.8h-.2l-1.8 4.4-.1.3.2.1c.1 0 1.2.5 2.2 1.7zm-.2-6c.6.2 2.8.9 4 3.4l-3.6 2.3c-.8-.9-1.6-1.4-2-1.7l1.6-4zM45 49.6l1.7 4.3c3.3-.8 4.3-3.6 4.4-3.7l-3.9-2.4s-.8 1-2.2 1.8zM15.5 44l-.2-.1s-.8-.9-1.4-2.4l-.1-.2-4.9 1v.2c.2 3.3 2.7 4.9 2.9 5.1l.1.1 3.2-3.6.4-.1zm-3.4 3.2c-.5-.4-2.4-1.8-2.6-4.5l4.2-.9c.4 1.1 1 1.9 1.3 2.2l-2.9 3.2zm15-35L27 7.6c-3.3-.4-5.3 1.9-5.4 2l2.9 3.6c0-.1 1-.8 2.6-1zm30.4 13.1l-.1-.1-4.2 2.3H53l.1.2s.5 1.1.5 2.7v.2l4.9.7v-.2c.9-3.2-.8-5.5-1-5.8zm.7 5.5l-4.2-.6c0-1.2-.3-2.1-.4-2.5l3.8-2c.3.5 1.5 2.5.8 5.1zm-27 22.7l-1.4 4.4c3 1.5 5.6 0 5.7 0L34 53.5s-1.2.3-2.8 0zm-24-22.6l4.7-.7h.2V30s-.1-1.2.5-2.7l.1-.2-4.4-2.3-.1.1c-1.9 2.7-1.1 5.5-1 5.8v.2zm1.2-5.6l3.8 2c-.4 1.1-.5 2.1-.5 2.5l-4.2.6c-.2-.6-.7-2.9.9-5.1zM39 7.7l-.1 4.6s1.3.2 2.7 1l2.8-3.6c-2.4-2.5-5.4-2-5.4-2zm12.4 33.9v.2S51 43 50 44.2l-.1.1 3.3 3.7.1-.1c2.7-1.8 2.9-4.8 2.9-5.1v-.2l-4.7-1h-.1zm4.5 1.4c-.1.7-.4 3-2.6 4.5l-2.9-3.2c.8-.9 1.1-1.8 1.3-2.2l4.2.9zM18 47.5L14.1 50c1.4 3.1 4.3 3.6 4.4 3.7l1.7-4.3c0-.1-1.1-.6-2.2-1.9zm.7-36.6c-3.2.8-4.4 3.5-4.5 3.8l-.1.2 4.1 2.5.2.1.1-.2s.8-1 2.1-1.8l.1-.1-1.9-4.6-.1.1zm-.4 6l-3.6-2.3c.3-.6 1.4-2.6 4-3.4l1.6 4c-1 .7-1.7 1.4-2 1.7zm33.5 6.5l4.5-1c-.2-3.4-2.8-4.9-2.9-4.9l-3.1 3.4c.1 0 .9.9 1.5 2.5zM41.2 51.5l-.2.1s-1 .7-2.6.9h-.2l.2 5h.9c2.8 0 4.5-1.7 4.8-2.1l.1-.1-3-3.8zm-1.9 5.7h-.5l-.2-4.3c1.2-.2 2.1-.7 2.4-.9l2.6 3.4c-.3.4-1.9 1.8-4.3 1.8zM11.8 34.5l-4.6-.6c-.9 3.2 1 5.6 1 5.6l4.1-2.2s-.5-1.2-.5-2.8zm19.6-22.7l.2-.1s.5-.1 1.3-.1c.5 0 1 0 1.4.1h.2L36.1 7l-.2-.1c-.9-.5-1.9-.7-2.9-.7-1.6 0-2.7.6-3 .7l-.1.1 1.5 4.6v.2zM33 6.6c.9 0 1.8.2 2.6.6l-1.3 4.1c-.4-.1-.9-.1-1.3-.1-.5 0-1 .1-1.2.1l-1.3-4.1c.2-.2 1.2-.6 2.5-.6zm3 31.2L35 35c1.3-.8 2-2.3 1.7-3.8l2.8-1c.6.7 1.6 1.1 2.5.7 1.1-.4 1.7-1.7 1.3-2.8-.4-1.1-1.7-1.7-2.8-1.3-.9.3-1.4 1.2-1.4 2l-2.9 1.1c-.8-1.3-2.3-2-3.7-1.8l-1-2.7c.7-.6.9-1.5.6-2.4-.4-1.1-1.7-1.7-2.8-1.3-1.1.4-1.7 1.7-1.3 2.8.3.9 1.2 1.5 2.2 1.4l1 2.6c-1.3.8-2.1 2.3-1.8 3.8l-2.5.9c-.6-.7-1.5-.9-2.4-.6-1.1.4-1.7 1.7-1.3 2.8.4 1.1 1.7 1.7 2.8 1.3.9-.3 1.5-1.2 1.4-2.2l2.5-.9c.8 1.3 2.4 2 3.9 1.8l1 2.7c-.7.6-1.1 1.6-.7 2.5.4 1.1 1.7 1.7 2.8 1.3 1.1-.4 1.7-1.7 1.3-2.8-.5-.7-1.3-1.3-2.2-1.3zm0 0"/><path d="M32.6 0C14.6 0 0 14.6 0 32.6s14.6 32.6 32.6 32.6 32.6-14.6 32.6-32.6S50.6 0 32.6 0zm0 60.4C17.2 60.4 4.7 48 4.7 32.6S17.2 4.7 32.6 4.7c15.4 0 27.9 12.5 27.9 27.9C60.4 48 48 60.4 32.6 60.4zm0 0"/></g></svg>