<svg width="384" height="326" viewBox="0 0 384 326" xmlns="http://www.w3.org/2000/svg" xmlns:xlink="http://www.w3.org/1999/xlink"><title>Page 1</title><defs><path id="a" d="M191.638 326h191.639V.574H0V326z"/></defs><g fill="none" fill-rule="evenodd"><g transform="translate(0 -.574)"><mask id="b" fill="#fff"><use xlink:href="#a"/></mask><path d="M300.824 300.156a9.54 9.54 0 0 1-9.543-9.543c0-5.262 4.27-9.531 9.543-9.531 5.266 0 9.531 4.269 9.531 9.531 0 5.273-4.265 9.543-9.531 9.543zm-21.164-5.824a5.833 5.833 0 0 1-5.832 5.824h-8.262a5.831 5.831 0 0 1-5.824-5.824v-43.024a5.831 5.831 0 0 1 5.824-5.824h8.262a5.833 5.833 0 0 1 5.832 5.824v43.024zm-54.234-22.27H45.191c-7.043 0-12.742-5.699-12.742-12.742 0-7.043 5.699-12.742 12.742-12.742h180.235c7.043 0 12.742 5.699 12.742 12.742 0 7.043-5.699 12.742-12.742 12.742zM24.051 188.961V77.168c0-4.852 3.945-8.797 8.797-8.797h57.957c4.851 0 8.793 3.945 8.793 8.797v111.793a8.793 8.793 0 0 1-8.793 8.797H32.848c-4.852 0-8.797-3.934-8.797-8.797zM124.656 77.168c0-4.852 3.946-8.797 8.797-8.797h57.957c4.852 0 8.797 3.945 8.797 8.797v111.793a8.796 8.796 0 0 1-8.797 8.797h-57.957a8.796 8.796 0 0 1-8.797-8.797V77.168zm100.61 0c0-4.852 3.941-8.797 8.796-8.797h57.969c4.864 0 8.793 3.945 8.793 8.797v111.793a8.785 8.785 0 0 1-8.793 8.797h-57.969a8.793 8.793 0 0 1-8.796-8.797V77.168zm132.531 20.554c-14.07 0-25.481 11.411-25.481 25.481 0 9.406 5.153 17.531 12.743 21.949v61.391c0 6.445-5.239 11.683-11.684 11.683h-8.523V59.402c0-13.773-11.161-24.933-24.934-24.933h-20.254c0-18.715-52.496-33.895-117.23-33.895-64.75 0-117.243 15.18-117.243 33.895H24.934C11.16 34.469 0 45.629 0 59.402v241.664C0 314.836 11.16 326 24.934 326h274.984c13.773 0 24.934-11.164 24.934-24.934v-57.359h8.523c20.492 0 37.164-16.676 37.164-37.168v-61.387c7.59-4.418 12.738-12.543 12.738-21.949.004-14.07-11.406-25.481-25.48-25.481z" fill="#063566" mask="url(#b)"/></g><path d="M158.426 137.695c8.027 2.715 11.484 5.313 11.484 9.434 0 4.344-4.219 6.73-10.402 6.73-4.317 0-8.387-.859-11.946-2.101a6.029 6.029 0 0 0-7.812 4.191l-.109.414c-.86 3.356 1.054 6.793 4.351 7.848 3.707 1.184 8.164 2.004 12.692 2.203v4.988a5.31 5.31 0 0 0 5.312 5.313s5.328-2.375 5.328-5.313v-5.734c12.453-2.18 19.285-10.414 19.285-20.07 0-9.743-5.203-15.715-18.089-20.27-9.223-3.469-13.028-5.734-13.028-9.316 0-3.035 2.289-6.075 9.328-6.075 4.196 0 7.567.723 10.231 1.571a5.412 5.412 0 0 0 4.277-.422 5.42 5.42 0 0 0 2.629-3.387l.199-.758a6.4 6.4 0 0 0-4.566-7.765c-2.676-.696-5.875-1.207-9.746-1.367v-4.243a5.308 5.308 0 1 0-10.614 0v4.989c-11.593 2.277-18.324 9.769-18.324 19.297-.004 10.527 7.91 15.937 19.52 19.843m74.418 24.985c2.226 2.215 7.738.261 10.535-2.203 11.137 6.335 27.437 3.148 39.121-8.547 11.68-11.684 14.879-27.981 8.535-39.118 2.473-2.8 4.418-8.3 2.215-10.539-2.242-2.203-7.738-.261-10.539 2.215-11.137-6.343-27.445-3.148-39.117 8.535-11.696 11.684-14.883 27.985-8.551 39.118-2.461 2.8-4.402 8.312-2.199 10.539M46.098 175.996c8.683 0 15.726-7.043 15.726-15.73 0-7.528-5.375-13.524-12.406-15.09-.422-13.067-.035-30.211 3.086-42.379 1.109 9.344 4.43 22.047 13.129 34.351-2.278 2.739-3.809 6.122-3.809 9.942 0 8.699 7.043 15.742 15.727 15.742 8.711 0 15.761-7.043 15.761-15.742 0-8.684-7.05-15.75-15.761-15.75-2.539 0-4.852.746-6.981 1.816-14.531-20.988-12.019-43.523-11.98-43.785a3.2 3.2 0 0 0-1.867-3.309 3.187 3.187 0 0 0-3.696.821c-9.851 11.285-10.562 40.574-10 58.242-7.179 1.469-12.691 7.527-12.691 15.145 0 8.683 7.055 15.726 15.762 15.726" fill="#063566"/></g></svg>