<svg xmlns="http://www.w3.org/2000/svg" width="512" height="512" viewBox="0 0 421.979 421.979"><path d="M367.797 62.811c10.687 0 20.178 5.228 27.805 9.429 5.603 3.085 10.025 5.521 14.576 5.521 1.972 0 11.801-.694 11.801-14.419v-34.03c0-15.715-12.784-28.5-28.5-28.5h-142.99c-15.715 0-28.5 12.785-28.5 28.5v142.99c0 15.715 12.785 28.5 28.5 28.5h142.989c15.716 0 28.5-12.785 28.5-28.5v-34.028c0-13.725-9.829-14.42-11.801-14.42-4.551 0-8.975 2.437-14.574 5.521-7.627 4.201-17.118 9.429-27.807 9.429-20.574 0-37.312-17.045-37.312-37.997-.002-20.951 16.739-37.996 37.313-37.996zM171.49.812h-34.029c-13.725 0-14.419 9.831-14.419 11.802 0 4.549 2.437 8.974 5.521 14.575 4.2 7.627 9.429 17.119 9.429 27.804 0 20.575-17.046 37.314-37.997 37.314-20.952 0-37.997-16.739-37.997-37.314 0-10.684 5.228-20.176 9.428-27.803 3.086-5.602 5.522-10.026 5.522-14.576 0-1.971-.695-11.802-14.42-11.802H28.5C12.785.812 0 13.598 0 29.312v142.99c0 15.715 12.785 28.5 28.5 28.5h142.99c15.715 0 28.5-12.785 28.5-28.5V29.312c0-15.714-12.785-28.5-28.5-28.5zm0 220.364H28.5c-15.715 0-28.5 12.785-28.5 28.5v34.027c0 13.727 9.83 14.421 11.801 14.421 4.55 0 8.974-2.438 14.575-5.521 7.627-4.201 17.119-9.43 27.805-9.43 20.575 0 37.314 17.045 37.314 37.998 0 20.949-16.739 37.996-37.314 37.996-10.684 0-20.176-5.229-27.803-9.43-5.603-3.085-10.027-5.521-14.577-5.521C9.83 344.219 0 344.912 0 358.638v34.028c0 15.716 12.785 28.5 28.5 28.5h142.99c15.715 0 28.5-12.784 28.5-28.5v-142.99c0-15.715-12.785-28.5-28.5-28.5zm221.989 0h-142.99c-15.715 0-28.5 12.785-28.5 28.5v142.99c0 15.715 12.785 28.5 28.5 28.5h34.028c13.726 0 14.418-9.831 14.418-11.803 0-4.549-2.438-8.974-5.521-14.575-4.199-7.627-9.428-17.118-9.428-27.804 0-20.575 17.045-37.312 37.996-37.312 20.952 0 37.998 16.737 37.998 37.312 0 10.685-5.229 20.176-9.429 27.803-3.088 5.604-5.522 10.026-5.522 14.576 0 1.971.694 11.802 14.42 11.802h34.028c15.716 0 28.5-12.784 28.5-28.5V249.676c.002-15.715-12.784-28.5-28.498-28.5z" fill="#788f9b"/></svg>