<svg width="239" height="142" viewBox="0 0 239 142" xmlns="http://www.w3.org/2000/svg"><title>Page 1</title><g fill="#063566" fill-rule="evenodd"><path d="M19.953 60.674l-5.883-2.832-1.25.875 3.285 4.664-2.707 1.906-8.183-11.629 2.707-1.906 3.203 4.554.918-.648-.645-6.352 3.352-2.359.102 7.801 8.394 3.609-3.293 2.317zm49.16 76.753a28.713 28.713 0 0 1-19.836-18.89L24.199 41.349a28.66 28.66 0 0 1-1.398-9.312L6.73 43.427c-7.179 5.09-8.886 15.125-3.8 22.309l46.937 66.203c3.11 4.387 8.067 6.731 13.086 6.731 2.086 0 4.18-.411 6.16-1.243zm-15.91-99.14l-4.871-4.352-1.441.5 1.863 5.391-3.129 1.078-4.645-13.437 3.129-1.083 1.817 5.262 1.062-.367 1.137-6.281L52 23.658l-2.062 7.523 7.066 5.789-3.801 1.317zm-6.558-21.043c-8.368 2.719-12.993 11.793-10.274 20.16l25.078 77.184c2.192 6.742 8.504 11.05 15.25 11.05 1.629 0 3.285-.25 4.91-.781l-.089-.012c-10.004-4.375-17.008-14.3-17.008-26.046V17.646c0-2.246.39-4.433.867-6.531l-18.734 6.129z"/><path d="M97.859 24.521h-4.023l-3.184-5.597h-2.14v5.597h-3.2V10.123h3.2v5.597h1.742l3.125-5.597h4.101l-4.406 6.523 4.785 7.875zm-20.55-6.875v81.156c0 8.508 6.535 15.168 14.914 15.598-2.434-2.269-4.411-4.969-5.969-8.027-3.5-6.867-4.086-14.668-1.715-21.969l25.098-77.34c.64-1.976 1.5-3.344 2.511-5.742H93.215c-8.801 0-15.906 7.523-15.906 16.324z"/><path d="M138.957 24.826l-3.117-1.149.191-2.871-4.207-1.547-1.703 2.317-3.117-1.149 9.215-11.757 3.328 1.222-.59 14.934zm-17.133-13.645l-25.078 77.18c-2.707 8.336 1.867 17.359 10.168 20.121a28.905 28.905 0 0 1-2.805-8.41c-1.293-7.598.442-15.227 4.879-21.488l46.934-66.203a28.45 28.45 0 0 1 4.933-5.344L141.988.908a15.926 15.926 0 0 0-4.91-.781c-6.75 0-13.062 4.312-15.254 11.054z"/><path d="M136.223 18.17l.363-5.289-.055-.02-3.14 4.266zm56.812 37.035c15.746 38.789-3.847 49.484-13.195 46.508-5.336-1.696-7.715-5.301-8.555-9.391l-6.082 10.086-7.539-5.352 7.176-8.664c-4.016.434-8.09-1.039-11.352-5.383-5.89-7.843-2.261-29.867 39.547-27.804zM179.75 19.642l2.891 2.055-4.481 14.254-2.707-1.922.938-2.723-3.653-2.593-2.254 1.793-2.707-1.926 11.973-8.938zm52.051 26.918l-43.129-30.578a15.891 15.891 0 0 0-9.219-2.93c-5.019 0-9.976 2.344-13.086 6.731l-46.933 66.203c-5.09 7.18-3.383 17.219 3.796 22.309l43.125 30.574a15.891 15.891 0 0 0 9.219 2.93c5.024 0 9.981-2.344 13.09-6.727l46.934-66.207c5.09-7.18 3.379-17.219-3.797-22.305z"/><path d="M177.266 28.81L179 23.806l-.047-.035-4.148 3.293z"/></g></svg>