<svg xmlns="http://www.w3.org/2000/svg" viewBox="0 0 359.3 217.1"><g fill="#1e3365"><path d="M343.9 0H15.4C6.9 0 0 6.9 0 15.4v186.3c0 8.5 6.9 15.4 15.4 15.4h328.5c8.5 0 15.4-6.9 15.4-15.4V15.4c0-8.5-6.9-15.4-15.4-15.4zm-10 191.7H25.4V25.4h308.5v166.3zm0 0"/><path d="M232.4 147c.4.7 1.2 1.1 2 1.1h17.2c1 0 1.9-.6 2.2-1.6 2.1-5.6 3.5-9.1 3.9-10.3h27.5c.5 2.1 1.7 7.6 2.2 9.9.2 1.1 1.2 1.9 2.3 1.9h15c.7 0 1.4-.3 1.9-.9.5-.6.6-1.3.5-2l-16.3-74c-.2-1.1-1.2-1.9-2.3-1.9h-14.7c-5.9 0-9.2 2-11.3 6.5l-30.4 68.9c-.3.8-.2 1.7.3 2.4zm43-56.5l1.5 6.8 5 22.8H264l11.4-29.6zm-101.5 53.9c5.7 2 13.6 3.2 21.2 3.3 21.8 0 35.9-10.2 36.1-26 .1-8.7-5.4-15.2-17.3-20.6-7.3-3.5-11.7-5.9-11.7-9.5 0-3.2 4.1-6.5 11.9-6.5h.6c6.5 0 11.1 1.5 14 2.6.7.3 1.4.2 2-.2.6-.4 1.1-1 1.2-1.7l1.9-11.4c.2-1.2-.5-2.3-1.6-2.7-3.6-1.1-9.3-2.5-16.6-2.5-20.5 0-34.9 10.3-35 25.1-.1 10.9 10.3 17 18.2 20.7 8.1 3.7 10.8 6.1 10.7 9.4-.1 5.1-6.5 7.4-12.4 7.4-8.4 0-13-1.3-19.4-3.9-.7-.3-1.4-.2-2.1.1-.6.4-1.1 1-1.2 1.7l-2.1 12c-.2 1.2.5 2.3 1.6 2.7zM53.7 73.7c13.7 4.9 25 12.8 32.5 22.7.5.6 1.2.9 1.9.9.3 0 .7-.1 1-.2 1-.5 1.6-1.6 1.4-2.7l-4-18.9v-.1c-1.4-5.4-6-6.2-9.3-6.3H54.6c-1.2 0-2.2.8-2.4 2-.3 1.1.4 2.2 1.5 2.6zm83.2 73.5c.5.5 1.1.9 1.8.9h16.6c1.2 0 2.2-.8 2.4-2l12.6-74c.1-.7-.1-1.4-.5-2s-1.1-.9-1.8-.9h-16.6c-1.2 0-2.2.8-2.4 2l-12.6 74c-.1.7.1 1.4.5 2zm0 0"/><path d="M70.5 86.2c-.8-.6-2-.7-2.8-.1-.9.6-1.2 1.7-.9 2.7l16.8 57.4c.3 1 1.2 1.7 2.3 1.7h19.4c1 0 1.8-.6 2.2-1.5l31.8-73.9c.3-.7.2-1.6-.2-2.3-.4-.7-1.2-1.1-2-1.1h-17.5c-1 0-1.9.6-2.2 1.5L96.9 123l-2.2-8c0-.1-.1-.2-.1-.3-3.3-7.4-12-19.2-24.1-28.5zm0 0"/></g></svg>