<svg xmlns="http://www.w3.org/2000/svg" width="512" height="512" viewBox="0 0 416.703 416.704"><g fill="#788f9b"><path d="M143.531 158.403h-.764a6.5 6.5 0 0 0-6.17 4.455l-11.943 36.043-11.998-36.051a6.501 6.501 0 0 0-6.168-4.447h-1.1a6.5 6.5 0 0 0-6.17 4.455l-11.943 36.043-11.998-36.051a6.501 6.501 0 0 0-6.168-4.447h-.764a6.498 6.498 0 0 0-6.156 8.588l18.432 54.355a6.497 6.497 0 0 0 6.154 4.411h.426c.029 0 .059-.005.088-.006.029.001.059.006.088.006h.344a6.5 6.5 0 0 0 6.16-4.426l12.084-35.878 12.027 35.869a6.506 6.506 0 0 0 6.164 4.435h.424c.029 0 .059-.005.088-.006.029.001.059.006.088.006h.344a6.5 6.5 0 0 0 6.156-4.411l18.43-54.355a6.497 6.497 0 0 0-6.155-8.588zm90.157 0h-.765a6.5 6.5 0 0 0-6.17 4.455l-11.942 36.043-11.999-36.051a6.501 6.501 0 0 0-6.168-4.447h-1.1a6.5 6.5 0 0 0-6.17 4.455l-11.943 36.043-11.998-36.051a6.501 6.501 0 0 0-6.168-4.447h-.764a6.498 6.498 0 0 0-6.156 8.588l18.432 54.355a6.497 6.497 0 0 0 6.154 4.411h.426c.029 0 .059-.005.088-.006.029.001.059.006.088.006h.344a6.5 6.5 0 0 0 6.16-4.426l12.084-35.878 12.027 35.869a6.507 6.507 0 0 0 6.165 4.435h.425c.028 0 .059-.005.088-.006.028.001.059.006.088.006h.344a6.5 6.5 0 0 0 6.156-4.411l18.43-54.355c.674-1.984.351-4.172-.871-5.875s-3.19-2.713-5.285-2.713zm90.156 0h-.766a6.501 6.501 0 0 0-6.17 4.455l-11.941 36.043-11.998-36.051a6.501 6.501 0 0 0-6.168-4.447h-1.102a6.5 6.5 0 0 0-6.17 4.455l-11.941 36.043-11.999-36.051a6.5 6.5 0 0 0-6.168-4.447h-.764c-2.098 0-4.063 1.01-5.283 2.713s-1.545 3.891-.873 5.875l18.433 54.355a6.497 6.497 0 0 0 6.154 4.411h.426c.029 0 .06-.005.088-.006.029.001.06.006.089.006h.344a6.5 6.5 0 0 0 6.16-4.426l12.084-35.878 12.026 35.869a6.507 6.507 0 0 0 6.164 4.435h.424c.029 0 .06-.005.089-.006.028.001.059.006.088.006h.344a6.5 6.5 0 0 0 6.156-4.411L330 166.991a6.497 6.497 0 0 0-6.156-8.588z"/><path d="M28.283 348.743V105.026h335.621v139.452c6.733-5.787 15.211-8.953 24.182-8.953 1.381 0 2.748.082 4.102.229V44.311c0-12.996-10.571-23.568-23.563-23.568H23.568C10.57 20.743 0 31.315 0 44.311v309.147c0 12.994 10.57 23.568 23.568 23.568h224.848c-5.428-8.517-9.375-18.062-11.441-28.283H28.283zM338.025 60.319a8.702 8.702 0 0 1 8.702-8.703h8.703a8.701 8.701 0 0 1 8.701 8.703v9.863a8.702 8.702 0 0 1-8.701 8.701h-8.703a8.7 8.7 0 0 1-8.702-8.701v-9.863zm-40.464 0a8.702 8.702 0 0 1 8.701-8.703h8.703a8.7 8.7 0 0 1 8.701 8.703v9.863a8.702 8.702 0 0 1-8.701 8.701h-8.703a8.702 8.702 0 0 1-8.701-8.701v-9.863zm-40.467 0a8.702 8.702 0 0 1 8.703-8.703h8.701a8.702 8.702 0 0 1 8.701 8.703v9.863a8.702 8.702 0 0 1-8.701 8.701h-8.701a8.702 8.702 0 0 1-8.703-8.701v-9.863z"/><path d="M416.703 285.536c0-4.586-1.785-8.896-5.029-12.141L398.83 260.55c-3.242-3.241-7.553-5.026-12.137-5.026s-8.896 1.785-12.14 5.028l-19.604 19.601c-10.469-7.506-23.303-11.928-37.168-11.928-35.273 0-63.868 28.596-63.868 63.868 0 35.271 28.595 63.867 63.868 63.867 35.272 0 63.867-28.598 63.867-63.867a63.75 63.75 0 0 0-.146-4.255l30.166-30.166a17.03 17.03 0 0 0 5.035-12.136zm-18.969 3.816l-61.427 61.428a6.902 6.902 0 0 1-4.881 2.021h-.002a6.91 6.91 0 0 1-4.883-2.022l-28.467-28.51a6.907 6.907 0 0 1 .006-9.759l5.479-5.479a6.903 6.903 0 0 1 9.755-.006l18.104 18.057 51.021-51.02a6.902 6.902 0 0 1 9.762 0l5.529 5.53a6.896 6.896 0 0 1 .004 9.76z"/></g></svg>